G04 #@! TF.FileFunction,Copper,L2,Bot,Signal*
%FSLAX46Y46*%
G04 Gerber Fmt 4.6, Leading zero omitted, Abs format (unit mm)*
G04 Created by KiCad (PCBNEW 4.0.7-e2-6376~61~ubuntu18.04.1) date Mon Jul 23 21:43:28 2018*
%MOMM*%
%LPD*%
G01*
G04 APERTURE LIST*
%ADD10C,0.100000*%
%ADD11C,1.500000*%
%ADD12R,2.400000X2.400000*%
%ADD13C,2.400000*%
%ADD14R,1.600000X1.600000*%
%ADD15C,1.600000*%
%ADD16R,2.200000X2.200000*%
%ADD17O,2.200000X2.200000*%
%ADD18R,2.600000X2.600000*%
%ADD19C,2.600000*%
%ADD20R,1.350000X1.350000*%
%ADD21C,1.350000*%
%ADD22R,1.800000X1.800000*%
%ADD23C,1.800000*%
%ADD24C,1.400000*%
%ADD25O,1.400000X1.400000*%
%ADD26O,1.800000X1.800000*%
%ADD27C,1.500000*%
%ADD28C,2.500000*%
%ADD29C,2.000000*%
%ADD30C,0.254000*%
G04 APERTURE END LIST*
D10*
D11*
X108500000Y-90000000D03*
D12*
X69628000Y-66636000D03*
D13*
X69628000Y-74136000D03*
D12*
X69628000Y-93828000D03*
D13*
X69628000Y-86328000D03*
D14*
X85376000Y-66048000D03*
D15*
X85376000Y-68548000D03*
D14*
X87000000Y-87000000D03*
D15*
X87000000Y-84500000D03*
D14*
X121952000Y-68548000D03*
D15*
X121952000Y-66048000D03*
D14*
X121444000Y-89924000D03*
D15*
X121444000Y-92424000D03*
D16*
X50000000Y-82620000D03*
D17*
X50000000Y-75000000D03*
D16*
X56000000Y-75000000D03*
D17*
X56000000Y-82620000D03*
D16*
X82836000Y-74644000D03*
D17*
X90456000Y-74644000D03*
D16*
X91000000Y-94000000D03*
D17*
X83380000Y-94000000D03*
D16*
X134652000Y-76676000D03*
D17*
X127032000Y-76676000D03*
D16*
X127540000Y-83788000D03*
D17*
X135160000Y-83788000D03*
D18*
X45000000Y-79000000D03*
D19*
X39000000Y-79000000D03*
X42000000Y-83700000D03*
D20*
X144000000Y-70000000D03*
D21*
X146000000Y-70000000D03*
X144000000Y-72000000D03*
X146000000Y-72000000D03*
X144000000Y-74000000D03*
X146000000Y-74000000D03*
X144000000Y-76000000D03*
X146000000Y-76000000D03*
X144000000Y-78000000D03*
X146000000Y-78000000D03*
X144000000Y-80000000D03*
X146000000Y-80000000D03*
X144000000Y-82000000D03*
X146000000Y-82000000D03*
X144000000Y-84000000D03*
X146000000Y-84000000D03*
D20*
X154000000Y-70000000D03*
D21*
X156000000Y-70000000D03*
X154000000Y-72000000D03*
X156000000Y-72000000D03*
X154000000Y-74000000D03*
X156000000Y-74000000D03*
X154000000Y-76000000D03*
X156000000Y-76000000D03*
X154000000Y-78000000D03*
X156000000Y-78000000D03*
X154000000Y-80000000D03*
X156000000Y-80000000D03*
X154000000Y-82000000D03*
X156000000Y-82000000D03*
X154000000Y-84000000D03*
X156000000Y-84000000D03*
D20*
X164000000Y-70000000D03*
D21*
X166000000Y-70000000D03*
X164000000Y-72000000D03*
X166000000Y-72000000D03*
X164000000Y-74000000D03*
X166000000Y-74000000D03*
X164000000Y-76000000D03*
X166000000Y-76000000D03*
X164000000Y-78000000D03*
X166000000Y-78000000D03*
X164000000Y-80000000D03*
X166000000Y-80000000D03*
X164000000Y-82000000D03*
X166000000Y-82000000D03*
X164000000Y-84000000D03*
X166000000Y-84000000D03*
D20*
X174000000Y-70000000D03*
D21*
X176000000Y-70000000D03*
X174000000Y-72000000D03*
X176000000Y-72000000D03*
X174000000Y-74000000D03*
X176000000Y-74000000D03*
X174000000Y-76000000D03*
X176000000Y-76000000D03*
X174000000Y-78000000D03*
X176000000Y-78000000D03*
X174000000Y-80000000D03*
X176000000Y-80000000D03*
X174000000Y-82000000D03*
X176000000Y-82000000D03*
X174000000Y-84000000D03*
X176000000Y-84000000D03*
D20*
X184000000Y-70000000D03*
D21*
X186000000Y-70000000D03*
X184000000Y-72000000D03*
X186000000Y-72000000D03*
X184000000Y-74000000D03*
X186000000Y-74000000D03*
X184000000Y-76000000D03*
X186000000Y-76000000D03*
X184000000Y-78000000D03*
X186000000Y-78000000D03*
X184000000Y-80000000D03*
X186000000Y-80000000D03*
X184000000Y-82000000D03*
X186000000Y-82000000D03*
X184000000Y-84000000D03*
X186000000Y-84000000D03*
D20*
X194000000Y-70000000D03*
D21*
X196000000Y-70000000D03*
X194000000Y-72000000D03*
X196000000Y-72000000D03*
X194000000Y-74000000D03*
X196000000Y-74000000D03*
X194000000Y-76000000D03*
X196000000Y-76000000D03*
X194000000Y-78000000D03*
X196000000Y-78000000D03*
X194000000Y-80000000D03*
X196000000Y-80000000D03*
X194000000Y-82000000D03*
X196000000Y-82000000D03*
X194000000Y-84000000D03*
X196000000Y-84000000D03*
D20*
X204000000Y-70000000D03*
D21*
X206000000Y-70000000D03*
X204000000Y-72000000D03*
X206000000Y-72000000D03*
X204000000Y-74000000D03*
X206000000Y-74000000D03*
X204000000Y-76000000D03*
X206000000Y-76000000D03*
X204000000Y-78000000D03*
X206000000Y-78000000D03*
X204000000Y-80000000D03*
X206000000Y-80000000D03*
X204000000Y-82000000D03*
X206000000Y-82000000D03*
X204000000Y-84000000D03*
X206000000Y-84000000D03*
D22*
X133128000Y-93440000D03*
D23*
X133128000Y-90900000D03*
D22*
X134144000Y-66516000D03*
D23*
X134144000Y-69056000D03*
D24*
X129064000Y-71088000D03*
D25*
X129064000Y-66008000D03*
D24*
X128048000Y-89376000D03*
D25*
X128048000Y-94456000D03*
D22*
X100108000Y-66516000D03*
D26*
X100108000Y-69056000D03*
X100108000Y-71596000D03*
D22*
X100108000Y-87852000D03*
D26*
X100108000Y-90392000D03*
X100108000Y-92932000D03*
D11*
X108500000Y-69000000D03*
D27*
X87000000Y-84500000D02*
X92975998Y-84500000D01*
X92975998Y-84500000D02*
X98867998Y-90392000D01*
X98867998Y-90392000D02*
X100108000Y-90392000D01*
X83380000Y-94000000D02*
X84479999Y-92900001D01*
X84479999Y-92900001D02*
X84479999Y-85888631D01*
X84479999Y-85888631D02*
X85868630Y-84500000D01*
X85868630Y-84500000D02*
X87000000Y-84500000D01*
X69628000Y-86328000D02*
X75708000Y-86328000D01*
X75708000Y-86328000D02*
X83380000Y-94000000D01*
X85376000Y-66048000D02*
X84000000Y-66048000D01*
X84000000Y-66048000D02*
X70216000Y-66048000D01*
X82836000Y-74644000D02*
X82836000Y-67212000D01*
X82836000Y-67212000D02*
X84000000Y-66048000D01*
X85376000Y-66048000D02*
X99640000Y-66048000D01*
X99640000Y-66048000D02*
X100108000Y-66516000D01*
X70216000Y-66048000D02*
X69628000Y-66636000D01*
D28*
X69628000Y-66636000D02*
X69628000Y-70336000D01*
X69628000Y-70336000D02*
X65920000Y-74044000D01*
X65920000Y-74044000D02*
X65920000Y-82620000D01*
X56000000Y-82620000D02*
X65920000Y-82620000D01*
X65920000Y-82620000D02*
X69628000Y-86328000D01*
X50000000Y-82620000D02*
X56000000Y-82620000D01*
D27*
X184000000Y-76000000D02*
X206000000Y-76000000D01*
X134652000Y-76676000D02*
X134652000Y-74076000D01*
X134652000Y-74076000D02*
X136144001Y-72583999D01*
X136144001Y-72583999D02*
X136144001Y-68095999D01*
X136144001Y-68095999D02*
X134564002Y-66516000D01*
X134564002Y-66516000D02*
X134144000Y-66516000D01*
X121952000Y-68548000D02*
X131691998Y-68548000D01*
X131691998Y-68548000D02*
X133723998Y-66516000D01*
X133723998Y-66516000D02*
X134144000Y-66516000D01*
X100108000Y-71596000D02*
X121204000Y-71596000D01*
X121204000Y-71596000D02*
X121952000Y-70848000D01*
X121952000Y-70848000D02*
X121952000Y-68548000D01*
X90456000Y-74644000D02*
X97060000Y-74644000D01*
X97060000Y-74644000D02*
X100108000Y-71596000D01*
X144000000Y-76000000D02*
X184000000Y-76000000D01*
X134652000Y-76676000D02*
X135328000Y-76000000D01*
X135328000Y-76000000D02*
X144000000Y-76000000D01*
X100108000Y-92932000D02*
X120936000Y-92932000D01*
X120936000Y-92932000D02*
X121444000Y-92424000D01*
X91000000Y-94000000D02*
X99040000Y-94000000D01*
X99040000Y-94000000D02*
X100108000Y-92932000D01*
X133128000Y-90900000D02*
X133128000Y-85820000D01*
X133128000Y-85820000D02*
X135160000Y-83788000D01*
X121444000Y-92424000D02*
X128680002Y-92424000D01*
X128680002Y-92424000D02*
X130204002Y-90900000D01*
X130204002Y-90900000D02*
X131855208Y-90900000D01*
X131855208Y-90900000D02*
X133128000Y-90900000D01*
X156000000Y-84000000D02*
X206000000Y-84000000D01*
X154000000Y-84000000D02*
X156000000Y-84000000D01*
X146000000Y-84000000D02*
X154000000Y-84000000D01*
X144000000Y-84000000D02*
X146000000Y-84000000D01*
X135160000Y-83788000D02*
X143788000Y-83788000D01*
X143788000Y-83788000D02*
X144000000Y-84000000D01*
D28*
X50000000Y-75000000D02*
X49000000Y-75000000D01*
X49000000Y-75000000D02*
X45000000Y-79000000D01*
D29*
X39000000Y-79000000D02*
X46000000Y-72000000D01*
X46000000Y-72000000D02*
X53000000Y-72000000D01*
X53000000Y-72000000D02*
X56000000Y-75000000D01*
D27*
X204000000Y-70000000D02*
X204000000Y-74000000D01*
X196000000Y-70000000D02*
X196000000Y-74000000D01*
X194000000Y-70000000D02*
X194000000Y-74000000D01*
X186000000Y-70000000D02*
X186000000Y-74000000D01*
X184000000Y-70000000D02*
X184000000Y-74000000D01*
X176000000Y-70000000D02*
X176000000Y-74000000D01*
X174000000Y-70000000D02*
X174000000Y-74000000D01*
X166000000Y-70000000D02*
X166000000Y-74000000D01*
X164000000Y-70000000D02*
X164000000Y-74000000D01*
X156000000Y-70000000D02*
X156000000Y-74000000D01*
X154000000Y-74000000D02*
X154000000Y-70000000D01*
X146000000Y-74000000D02*
X146000000Y-70000000D01*
X206000000Y-74000000D02*
X206000000Y-70000000D01*
X144000000Y-74000000D02*
X144000000Y-70000000D01*
X144000000Y-74000000D02*
X206000000Y-74000000D01*
X206000000Y-72000000D02*
X144000000Y-72000000D01*
X144000000Y-70000000D02*
X164000000Y-70000000D01*
X164000000Y-70000000D02*
X206000000Y-70000000D01*
X128048000Y-94456000D02*
X132112000Y-94456000D01*
X132112000Y-94456000D02*
X133128000Y-93440000D01*
X129064000Y-71088000D02*
X132112000Y-71088000D01*
X132112000Y-71088000D02*
X134144000Y-69056000D01*
D30*
G36*
X202910197Y-62089803D02*
X202952211Y-62117666D01*
X203000000Y-62127000D01*
X203970020Y-62127000D01*
X205924768Y-63104374D01*
X207249826Y-64429432D01*
X208532718Y-66349416D01*
X208603653Y-66491285D01*
X208873000Y-67845385D01*
X208873000Y-92154615D01*
X208603653Y-93508715D01*
X208532718Y-93650584D01*
X207249826Y-95570568D01*
X205570566Y-97249828D01*
X203559559Y-98593539D01*
X202154615Y-98873000D01*
X40020610Y-98873000D01*
X37048720Y-97882370D01*
X33094660Y-95905340D01*
X31813790Y-93343599D01*
X35264699Y-93343599D01*
X35528281Y-93981515D01*
X36015918Y-94470004D01*
X36653373Y-94734699D01*
X37343599Y-94735301D01*
X37981515Y-94471719D01*
X38340109Y-94113750D01*
X67793000Y-94113750D01*
X67793000Y-95154309D01*
X67889673Y-95387698D01*
X68068301Y-95566327D01*
X68301690Y-95663000D01*
X69342250Y-95663000D01*
X69501000Y-95504250D01*
X69501000Y-93955000D01*
X69755000Y-93955000D01*
X69755000Y-95504250D01*
X69913750Y-95663000D01*
X70954310Y-95663000D01*
X71187699Y-95566327D01*
X71366327Y-95387698D01*
X71463000Y-95154309D01*
X71463000Y-94113750D01*
X71304250Y-93955000D01*
X69755000Y-93955000D01*
X69501000Y-93955000D01*
X67951750Y-93955000D01*
X67793000Y-94113750D01*
X38340109Y-94113750D01*
X38470004Y-93984082D01*
X38734699Y-93346627D01*
X38735301Y-92656401D01*
X38671377Y-92501691D01*
X67793000Y-92501691D01*
X67793000Y-93542250D01*
X67951750Y-93701000D01*
X69501000Y-93701000D01*
X69501000Y-92151750D01*
X69755000Y-92151750D01*
X69755000Y-93701000D01*
X71304250Y-93701000D01*
X71463000Y-93542250D01*
X71463000Y-92501691D01*
X71366327Y-92268302D01*
X71187699Y-92089673D01*
X70954310Y-91993000D01*
X69913750Y-91993000D01*
X69755000Y-92151750D01*
X69501000Y-92151750D01*
X69342250Y-91993000D01*
X68301690Y-91993000D01*
X68068301Y-92089673D01*
X67889673Y-92268302D01*
X67793000Y-92501691D01*
X38671377Y-92501691D01*
X38471719Y-92018485D01*
X37984082Y-91529996D01*
X37346627Y-91265301D01*
X36656401Y-91264699D01*
X36018485Y-91528281D01*
X35529996Y-92015918D01*
X35265301Y-92653373D01*
X35264699Y-93343599D01*
X31813790Y-93343599D01*
X31127000Y-91970020D01*
X31127000Y-85069459D01*
X40810146Y-85069459D01*
X40945504Y-85367455D01*
X41663880Y-85644066D01*
X42433427Y-85624710D01*
X43054496Y-85367455D01*
X43189854Y-85069459D01*
X42000000Y-83879605D01*
X40810146Y-85069459D01*
X31127000Y-85069459D01*
X31127000Y-83363880D01*
X40055934Y-83363880D01*
X40075290Y-84133427D01*
X40332545Y-84754496D01*
X40630541Y-84889854D01*
X41820395Y-83700000D01*
X42179605Y-83700000D01*
X43369459Y-84889854D01*
X43667455Y-84754496D01*
X43944066Y-84036120D01*
X43924710Y-83266573D01*
X43667455Y-82645504D01*
X43611307Y-82620000D01*
X48115000Y-82620000D01*
X48252560Y-83311561D01*
X48252560Y-83720000D01*
X48296838Y-83955317D01*
X48435910Y-84171441D01*
X48648110Y-84316431D01*
X48900000Y-84367440D01*
X49308439Y-84367440D01*
X50000000Y-84505000D01*
X65139208Y-84505000D01*
X68295104Y-87660896D01*
X68507268Y-87802660D01*
X68587199Y-87882730D01*
X68692607Y-87926499D01*
X68906642Y-88069513D01*
X69156907Y-88119294D01*
X69261395Y-88162681D01*
X69375530Y-88162781D01*
X69628000Y-88213000D01*
X69878265Y-88163219D01*
X69991403Y-88163318D01*
X70096888Y-88119733D01*
X70349359Y-88069513D01*
X70561522Y-87927750D01*
X70666086Y-87884545D01*
X70746863Y-87803908D01*
X70882917Y-87713000D01*
X75134314Y-87713000D01*
X81658111Y-94236797D01*
X81743078Y-94663956D01*
X82119179Y-95226830D01*
X82682053Y-95602931D01*
X83346009Y-95735000D01*
X83413991Y-95735000D01*
X84077947Y-95602931D01*
X84640821Y-95226830D01*
X85016922Y-94663956D01*
X85101889Y-94236797D01*
X85459342Y-93879344D01*
X85759573Y-93430017D01*
X85865000Y-92900001D01*
X85864999Y-92899996D01*
X85864999Y-88348557D01*
X86073690Y-88435000D01*
X86714250Y-88435000D01*
X86873000Y-88276250D01*
X86873000Y-87127000D01*
X87127000Y-87127000D01*
X87127000Y-88276250D01*
X87285750Y-88435000D01*
X87926310Y-88435000D01*
X88159699Y-88338327D01*
X88338327Y-88159698D01*
X88435000Y-87926309D01*
X88435000Y-87285750D01*
X88276250Y-87127000D01*
X87127000Y-87127000D01*
X86873000Y-87127000D01*
X86853000Y-87127000D01*
X86853000Y-86873000D01*
X86873000Y-86873000D01*
X86873000Y-86853000D01*
X87127000Y-86853000D01*
X87127000Y-86873000D01*
X88276250Y-86873000D01*
X88435000Y-86714250D01*
X88435000Y-86073691D01*
X88356842Y-85885000D01*
X92402312Y-85885000D01*
X97888655Y-91371343D01*
X98337981Y-91671573D01*
X98867998Y-91777000D01*
X99081735Y-91777000D01*
X99022591Y-91816519D01*
X98689845Y-92314509D01*
X98670736Y-92410578D01*
X98466314Y-92615000D01*
X92671192Y-92615000D01*
X92564090Y-92448559D01*
X92351890Y-92303569D01*
X92100000Y-92252560D01*
X89900000Y-92252560D01*
X89664683Y-92296838D01*
X89448559Y-92435910D01*
X89303569Y-92648110D01*
X89252560Y-92900000D01*
X89252560Y-95100000D01*
X89296838Y-95335317D01*
X89435910Y-95551441D01*
X89648110Y-95696431D01*
X89900000Y-95747440D01*
X92100000Y-95747440D01*
X92335317Y-95703162D01*
X92551441Y-95564090D01*
X92673808Y-95385000D01*
X99040000Y-95385000D01*
X99570017Y-95279573D01*
X100019343Y-94979343D01*
X100599350Y-94399336D01*
X100695419Y-94380227D01*
X100790045Y-94317000D01*
X120936000Y-94317000D01*
X121466017Y-94211573D01*
X121915343Y-93911343D01*
X122017686Y-93809000D01*
X126846593Y-93809000D01*
X126768427Y-93925983D01*
X126663000Y-94456000D01*
X126768427Y-94986017D01*
X127068657Y-95435343D01*
X127517983Y-95735573D01*
X128048000Y-95841000D01*
X132112000Y-95841000D01*
X132642017Y-95735573D01*
X133091343Y-95435343D01*
X133183087Y-95343599D01*
X143264699Y-95343599D01*
X143528281Y-95981515D01*
X144015918Y-96470004D01*
X144653373Y-96734699D01*
X145343599Y-96735301D01*
X145981515Y-96471719D01*
X146470004Y-95984082D01*
X146734699Y-95346627D01*
X146735301Y-94656401D01*
X146606054Y-94343599D01*
X202264699Y-94343599D01*
X202528281Y-94981515D01*
X203015918Y-95470004D01*
X203653373Y-95734699D01*
X204343599Y-95735301D01*
X204981515Y-95471719D01*
X205470004Y-94984082D01*
X205734699Y-94346627D01*
X205735301Y-93656401D01*
X205471719Y-93018485D01*
X204984082Y-92529996D01*
X204346627Y-92265301D01*
X203656401Y-92264699D01*
X203018485Y-92528281D01*
X202529996Y-93015918D01*
X202265301Y-93653373D01*
X202264699Y-94343599D01*
X146606054Y-94343599D01*
X146471719Y-94018485D01*
X145984082Y-93529996D01*
X145346627Y-93265301D01*
X144656401Y-93264699D01*
X144018485Y-93528281D01*
X143529996Y-94015918D01*
X143265301Y-94653373D01*
X143264699Y-95343599D01*
X133183087Y-95343599D01*
X133539246Y-94987440D01*
X134028000Y-94987440D01*
X134263317Y-94943162D01*
X134479441Y-94804090D01*
X134624431Y-94591890D01*
X134675440Y-94340000D01*
X134675440Y-92540000D01*
X134631162Y-92304683D01*
X134492090Y-92088559D01*
X134279890Y-91943569D01*
X134259466Y-91939433D01*
X134428551Y-91770643D01*
X134662733Y-91206670D01*
X134663265Y-90596009D01*
X134513000Y-90232340D01*
X134513000Y-86393686D01*
X135430788Y-85475898D01*
X135857947Y-85390931D01*
X136184103Y-85173000D01*
X143310485Y-85173000D01*
X143469983Y-85279573D01*
X144000000Y-85385000D01*
X206000000Y-85385000D01*
X206530017Y-85279573D01*
X206979343Y-84979343D01*
X207279573Y-84530017D01*
X207385000Y-84000000D01*
X207279573Y-83469983D01*
X206979343Y-83020657D01*
X206562580Y-82742185D01*
X206000000Y-82179605D01*
X205985858Y-82193748D01*
X205806253Y-82014143D01*
X205820395Y-82000000D01*
X206179605Y-82000000D01*
X206917147Y-82737542D01*
X207150328Y-82678781D01*
X207322522Y-82186900D01*
X207293375Y-81666566D01*
X207150328Y-81321219D01*
X206917147Y-81262458D01*
X206179605Y-82000000D01*
X205820395Y-82000000D01*
X205156490Y-81336095D01*
X205150328Y-81321219D01*
X205138678Y-81318283D01*
X205082853Y-81262458D01*
X205000000Y-81283337D01*
X204917147Y-81262458D01*
X204861322Y-81318283D01*
X204849672Y-81321219D01*
X204844978Y-81334627D01*
X204179605Y-82000000D01*
X204193748Y-82014143D01*
X204014143Y-82193748D01*
X204000000Y-82179605D01*
X203985858Y-82193748D01*
X203806253Y-82014143D01*
X203820395Y-82000000D01*
X203082853Y-81262458D01*
X202849672Y-81321219D01*
X202677478Y-81813100D01*
X202706625Y-82333434D01*
X202823253Y-82615000D01*
X197172656Y-82615000D01*
X197322522Y-82186900D01*
X197293375Y-81666566D01*
X197150328Y-81321219D01*
X196917147Y-81262458D01*
X196179605Y-82000000D01*
X196193748Y-82014143D01*
X196014143Y-82193748D01*
X196000000Y-82179605D01*
X195985858Y-82193748D01*
X195806253Y-82014143D01*
X195820395Y-82000000D01*
X195156490Y-81336095D01*
X195150328Y-81321219D01*
X195138678Y-81318283D01*
X195082853Y-81262458D01*
X195000000Y-81283337D01*
X194917147Y-81262458D01*
X194861322Y-81318283D01*
X194849672Y-81321219D01*
X194844978Y-81334627D01*
X194179605Y-82000000D01*
X194193748Y-82014143D01*
X194014143Y-82193748D01*
X194000000Y-82179605D01*
X193985858Y-82193748D01*
X193806253Y-82014143D01*
X193820395Y-82000000D01*
X193082853Y-81262458D01*
X192849672Y-81321219D01*
X192677478Y-81813100D01*
X192706625Y-82333434D01*
X192823253Y-82615000D01*
X187172656Y-82615000D01*
X187322522Y-82186900D01*
X187293375Y-81666566D01*
X187150328Y-81321219D01*
X186917147Y-81262458D01*
X186179605Y-82000000D01*
X186193748Y-82014143D01*
X186014143Y-82193748D01*
X186000000Y-82179605D01*
X185985858Y-82193748D01*
X185806253Y-82014143D01*
X185820395Y-82000000D01*
X185156490Y-81336095D01*
X185150328Y-81321219D01*
X185138678Y-81318283D01*
X185082853Y-81262458D01*
X185000000Y-81283337D01*
X184917147Y-81262458D01*
X184861322Y-81318283D01*
X184849672Y-81321219D01*
X184844978Y-81334627D01*
X184179605Y-82000000D01*
X184193748Y-82014143D01*
X184014143Y-82193748D01*
X184000000Y-82179605D01*
X183985858Y-82193748D01*
X183806253Y-82014143D01*
X183820395Y-82000000D01*
X183082853Y-81262458D01*
X182849672Y-81321219D01*
X182677478Y-81813100D01*
X182706625Y-82333434D01*
X182823253Y-82615000D01*
X177172656Y-82615000D01*
X177322522Y-82186900D01*
X177293375Y-81666566D01*
X177150328Y-81321219D01*
X176917147Y-81262458D01*
X176179605Y-82000000D01*
X176193748Y-82014143D01*
X176014143Y-82193748D01*
X176000000Y-82179605D01*
X175985858Y-82193748D01*
X175806253Y-82014143D01*
X175820395Y-82000000D01*
X175156490Y-81336095D01*
X175150328Y-81321219D01*
X175138678Y-81318283D01*
X175082853Y-81262458D01*
X175000000Y-81283337D01*
X174917147Y-81262458D01*
X174861322Y-81318283D01*
X174849672Y-81321219D01*
X174844978Y-81334627D01*
X174179605Y-82000000D01*
X174193748Y-82014143D01*
X174014143Y-82193748D01*
X174000000Y-82179605D01*
X173985858Y-82193748D01*
X173806253Y-82014143D01*
X173820395Y-82000000D01*
X173082853Y-81262458D01*
X172849672Y-81321219D01*
X172677478Y-81813100D01*
X172706625Y-82333434D01*
X172823253Y-82615000D01*
X167172656Y-82615000D01*
X167322522Y-82186900D01*
X167293375Y-81666566D01*
X167150328Y-81321219D01*
X166917147Y-81262458D01*
X166179605Y-82000000D01*
X166193748Y-82014143D01*
X166014143Y-82193748D01*
X166000000Y-82179605D01*
X165985858Y-82193748D01*
X165806253Y-82014143D01*
X165820395Y-82000000D01*
X165156490Y-81336095D01*
X165150328Y-81321219D01*
X165138678Y-81318283D01*
X165082853Y-81262458D01*
X165000000Y-81283337D01*
X164917147Y-81262458D01*
X164861322Y-81318283D01*
X164849672Y-81321219D01*
X164844978Y-81334627D01*
X164179605Y-82000000D01*
X164193748Y-82014143D01*
X164014143Y-82193748D01*
X164000000Y-82179605D01*
X163985858Y-82193748D01*
X163806253Y-82014143D01*
X163820395Y-82000000D01*
X163082853Y-81262458D01*
X162849672Y-81321219D01*
X162677478Y-81813100D01*
X162706625Y-82333434D01*
X162823253Y-82615000D01*
X157172656Y-82615000D01*
X157322522Y-82186900D01*
X157293375Y-81666566D01*
X157150328Y-81321219D01*
X156917147Y-81262458D01*
X156179605Y-82000000D01*
X156193748Y-82014143D01*
X156014143Y-82193748D01*
X156000000Y-82179605D01*
X155985858Y-82193748D01*
X155806253Y-82014143D01*
X155820395Y-82000000D01*
X155156490Y-81336095D01*
X155150328Y-81321219D01*
X155138678Y-81318283D01*
X155082853Y-81262458D01*
X155000000Y-81283337D01*
X154917147Y-81262458D01*
X154861322Y-81318283D01*
X154849672Y-81321219D01*
X154844978Y-81334627D01*
X154179605Y-82000000D01*
X154193748Y-82014143D01*
X154014143Y-82193748D01*
X154000000Y-82179605D01*
X153985858Y-82193748D01*
X153806253Y-82014143D01*
X153820395Y-82000000D01*
X153082853Y-81262458D01*
X152849672Y-81321219D01*
X152677478Y-81813100D01*
X152706625Y-82333434D01*
X152823253Y-82615000D01*
X147172656Y-82615000D01*
X147322522Y-82186900D01*
X147293375Y-81666566D01*
X147150328Y-81321219D01*
X146917147Y-81262458D01*
X146179605Y-82000000D01*
X146193748Y-82014143D01*
X146014143Y-82193748D01*
X146000000Y-82179605D01*
X145985858Y-82193748D01*
X145806253Y-82014143D01*
X145820395Y-82000000D01*
X145156490Y-81336095D01*
X145150328Y-81321219D01*
X145138678Y-81318283D01*
X145082853Y-81262458D01*
X145000000Y-81283337D01*
X144917147Y-81262458D01*
X144861322Y-81318283D01*
X144849672Y-81321219D01*
X144844978Y-81334627D01*
X144179605Y-82000000D01*
X144193748Y-82014143D01*
X144014143Y-82193748D01*
X144000000Y-82179605D01*
X143985858Y-82193748D01*
X143806253Y-82014143D01*
X143820395Y-82000000D01*
X143082853Y-81262458D01*
X142849672Y-81321219D01*
X142677478Y-81813100D01*
X142706625Y-82333434D01*
X142735440Y-82403000D01*
X136184103Y-82403000D01*
X135857947Y-82185069D01*
X135193991Y-82053000D01*
X135126009Y-82053000D01*
X134462053Y-82185069D01*
X133899179Y-82561170D01*
X133523078Y-83124044D01*
X133438111Y-83551203D01*
X132148657Y-84840657D01*
X131848427Y-85289983D01*
X131743000Y-85820000D01*
X131743000Y-89515000D01*
X130204002Y-89515000D01*
X129673985Y-89620427D01*
X129305916Y-89866363D01*
X129285993Y-89879675D01*
X129395419Y-89568878D01*
X129366664Y-89038560D01*
X129219042Y-88682169D01*
X128983275Y-88620331D01*
X128227605Y-89376000D01*
X128241748Y-89390142D01*
X128062142Y-89569748D01*
X128048000Y-89555605D01*
X127292331Y-90311275D01*
X127354169Y-90547042D01*
X127855122Y-90723419D01*
X128385440Y-90694664D01*
X128496764Y-90648552D01*
X128106316Y-91039000D01*
X122800842Y-91039000D01*
X122879000Y-90850309D01*
X122879000Y-90209750D01*
X122720250Y-90051000D01*
X121571000Y-90051000D01*
X121571000Y-90071000D01*
X121317000Y-90071000D01*
X121317000Y-90051000D01*
X120167750Y-90051000D01*
X120009000Y-90209750D01*
X120009000Y-90850309D01*
X120105673Y-91083698D01*
X120284301Y-91262327D01*
X120490835Y-91347876D01*
X120291363Y-91547000D01*
X101134265Y-91547000D01*
X101193409Y-91507481D01*
X101526155Y-91009491D01*
X101643000Y-90422072D01*
X101643000Y-90361928D01*
X101625567Y-90274285D01*
X107114760Y-90274285D01*
X107325169Y-90783515D01*
X107714436Y-91173461D01*
X108223298Y-91384759D01*
X108774285Y-91385240D01*
X109283515Y-91174831D01*
X109673461Y-90785564D01*
X109884759Y-90276702D01*
X109885240Y-89725715D01*
X109674831Y-89216485D01*
X109456418Y-88997691D01*
X120009000Y-88997691D01*
X120009000Y-89638250D01*
X120167750Y-89797000D01*
X121317000Y-89797000D01*
X121317000Y-88647750D01*
X121571000Y-88647750D01*
X121571000Y-89797000D01*
X122720250Y-89797000D01*
X122879000Y-89638250D01*
X122879000Y-89183122D01*
X126700581Y-89183122D01*
X126729336Y-89713440D01*
X126876958Y-90069831D01*
X127112725Y-90131669D01*
X127868395Y-89376000D01*
X127112725Y-88620331D01*
X126876958Y-88682169D01*
X126700581Y-89183122D01*
X122879000Y-89183122D01*
X122879000Y-88997691D01*
X122782327Y-88764302D01*
X122603699Y-88585673D01*
X122370310Y-88489000D01*
X121729750Y-88489000D01*
X121571000Y-88647750D01*
X121317000Y-88647750D01*
X121158250Y-88489000D01*
X120517690Y-88489000D01*
X120284301Y-88585673D01*
X120105673Y-88764302D01*
X120009000Y-88997691D01*
X109456418Y-88997691D01*
X109285564Y-88826539D01*
X108776702Y-88615241D01*
X108225715Y-88614760D01*
X107716485Y-88825169D01*
X107326539Y-89214436D01*
X107115241Y-89723298D01*
X107114760Y-90274285D01*
X101625567Y-90274285D01*
X101526155Y-89774509D01*
X101238417Y-89343878D01*
X101367699Y-89290327D01*
X101546327Y-89111698D01*
X101643000Y-88878309D01*
X101643000Y-88440725D01*
X127292331Y-88440725D01*
X128048000Y-89196395D01*
X128803669Y-88440725D01*
X128741831Y-88204958D01*
X128240878Y-88028581D01*
X127710560Y-88057336D01*
X127354169Y-88204958D01*
X127292331Y-88440725D01*
X101643000Y-88440725D01*
X101643000Y-88137750D01*
X101484250Y-87979000D01*
X100235000Y-87979000D01*
X100235000Y-87999000D01*
X99981000Y-87999000D01*
X99981000Y-87979000D01*
X98731750Y-87979000D01*
X98573000Y-88137750D01*
X98573000Y-88138316D01*
X97260375Y-86825691D01*
X98573000Y-86825691D01*
X98573000Y-87566250D01*
X98731750Y-87725000D01*
X99981000Y-87725000D01*
X99981000Y-86475750D01*
X100235000Y-86475750D01*
X100235000Y-87725000D01*
X101484250Y-87725000D01*
X101643000Y-87566250D01*
X101643000Y-86825691D01*
X101546327Y-86592302D01*
X101367699Y-86413673D01*
X101134310Y-86317000D01*
X100393750Y-86317000D01*
X100235000Y-86475750D01*
X99981000Y-86475750D01*
X99822250Y-86317000D01*
X99081690Y-86317000D01*
X98848301Y-86413673D01*
X98669673Y-86592302D01*
X98573000Y-86825691D01*
X97260375Y-86825691D01*
X94508434Y-84073750D01*
X125805000Y-84073750D01*
X125805000Y-85014310D01*
X125901673Y-85247699D01*
X126080302Y-85426327D01*
X126313691Y-85523000D01*
X127254250Y-85523000D01*
X127413000Y-85364250D01*
X127413000Y-83915000D01*
X127667000Y-83915000D01*
X127667000Y-85364250D01*
X127825750Y-85523000D01*
X128766309Y-85523000D01*
X128999698Y-85426327D01*
X129178327Y-85247699D01*
X129275000Y-85014310D01*
X129275000Y-84073750D01*
X129116250Y-83915000D01*
X127667000Y-83915000D01*
X127413000Y-83915000D01*
X125963750Y-83915000D01*
X125805000Y-84073750D01*
X94508434Y-84073750D01*
X93955341Y-83520657D01*
X93879502Y-83469983D01*
X93506015Y-83220427D01*
X92975998Y-83115000D01*
X87406502Y-83115000D01*
X87286691Y-83065250D01*
X86715813Y-83064752D01*
X86594203Y-83115000D01*
X85868630Y-83115000D01*
X85338614Y-83220426D01*
X84889287Y-83520657D01*
X83500656Y-84909288D01*
X83200426Y-85358614D01*
X83094999Y-85888631D01*
X83094999Y-91756313D01*
X76687343Y-85348657D01*
X76635360Y-85313923D01*
X76238017Y-85048427D01*
X75708000Y-84943000D01*
X70908792Y-84943000D01*
X68527482Y-82561690D01*
X125805000Y-82561690D01*
X125805000Y-83502250D01*
X125963750Y-83661000D01*
X127413000Y-83661000D01*
X127413000Y-82211750D01*
X127667000Y-82211750D01*
X127667000Y-83661000D01*
X129116250Y-83661000D01*
X129275000Y-83502250D01*
X129275000Y-82561690D01*
X129178327Y-82328301D01*
X128999698Y-82149673D01*
X128766309Y-82053000D01*
X127825750Y-82053000D01*
X127667000Y-82211750D01*
X127413000Y-82211750D01*
X127254250Y-82053000D01*
X126313691Y-82053000D01*
X126080302Y-82149673D01*
X125901673Y-82328301D01*
X125805000Y-82561690D01*
X68527482Y-82561690D01*
X67805000Y-81839208D01*
X67805000Y-80917147D01*
X143262458Y-80917147D01*
X143283337Y-81000000D01*
X143262458Y-81082853D01*
X143318283Y-81138678D01*
X143321219Y-81150328D01*
X143334627Y-81155022D01*
X144000000Y-81820395D01*
X144663905Y-81156490D01*
X144678781Y-81150328D01*
X144681717Y-81138678D01*
X144737542Y-81082853D01*
X144716663Y-81000000D01*
X144737542Y-80917147D01*
X145262458Y-80917147D01*
X145283337Y-81000000D01*
X145262458Y-81082853D01*
X145318283Y-81138678D01*
X145321219Y-81150328D01*
X145334627Y-81155022D01*
X146000000Y-81820395D01*
X146663905Y-81156490D01*
X146678781Y-81150328D01*
X146681717Y-81138678D01*
X146737542Y-81082853D01*
X146716663Y-81000000D01*
X146737542Y-80917147D01*
X153262458Y-80917147D01*
X153283337Y-81000000D01*
X153262458Y-81082853D01*
X153318283Y-81138678D01*
X153321219Y-81150328D01*
X153334627Y-81155022D01*
X154000000Y-81820395D01*
X154663905Y-81156490D01*
X154678781Y-81150328D01*
X154681717Y-81138678D01*
X154737542Y-81082853D01*
X154716663Y-81000000D01*
X154737542Y-80917147D01*
X155262458Y-80917147D01*
X155283337Y-81000000D01*
X155262458Y-81082853D01*
X155318283Y-81138678D01*
X155321219Y-81150328D01*
X155334627Y-81155022D01*
X156000000Y-81820395D01*
X156663905Y-81156490D01*
X156678781Y-81150328D01*
X156681717Y-81138678D01*
X156737542Y-81082853D01*
X156716663Y-81000000D01*
X156737542Y-80917147D01*
X163262458Y-80917147D01*
X163283337Y-81000000D01*
X163262458Y-81082853D01*
X163318283Y-81138678D01*
X163321219Y-81150328D01*
X163334627Y-81155022D01*
X164000000Y-81820395D01*
X164663905Y-81156490D01*
X164678781Y-81150328D01*
X164681717Y-81138678D01*
X164737542Y-81082853D01*
X164716663Y-81000000D01*
X164737542Y-80917147D01*
X165262458Y-80917147D01*
X165283337Y-81000000D01*
X165262458Y-81082853D01*
X165318283Y-81138678D01*
X165321219Y-81150328D01*
X165334627Y-81155022D01*
X166000000Y-81820395D01*
X166663905Y-81156490D01*
X166678781Y-81150328D01*
X166681717Y-81138678D01*
X166737542Y-81082853D01*
X166716663Y-81000000D01*
X166737542Y-80917147D01*
X173262458Y-80917147D01*
X173283337Y-81000000D01*
X173262458Y-81082853D01*
X173318283Y-81138678D01*
X173321219Y-81150328D01*
X173334627Y-81155022D01*
X174000000Y-81820395D01*
X174663905Y-81156490D01*
X174678781Y-81150328D01*
X174681717Y-81138678D01*
X174737542Y-81082853D01*
X174716663Y-81000000D01*
X174737542Y-80917147D01*
X175262458Y-80917147D01*
X175283337Y-81000000D01*
X175262458Y-81082853D01*
X175318283Y-81138678D01*
X175321219Y-81150328D01*
X175334627Y-81155022D01*
X176000000Y-81820395D01*
X176663905Y-81156490D01*
X176678781Y-81150328D01*
X176681717Y-81138678D01*
X176737542Y-81082853D01*
X176716663Y-81000000D01*
X176737542Y-80917147D01*
X183262458Y-80917147D01*
X183283337Y-81000000D01*
X183262458Y-81082853D01*
X183318283Y-81138678D01*
X183321219Y-81150328D01*
X183334627Y-81155022D01*
X184000000Y-81820395D01*
X184663905Y-81156490D01*
X184678781Y-81150328D01*
X184681717Y-81138678D01*
X184737542Y-81082853D01*
X184716663Y-81000000D01*
X184737542Y-80917147D01*
X185262458Y-80917147D01*
X185283337Y-81000000D01*
X185262458Y-81082853D01*
X185318283Y-81138678D01*
X185321219Y-81150328D01*
X185334627Y-81155022D01*
X186000000Y-81820395D01*
X186663905Y-81156490D01*
X186678781Y-81150328D01*
X186681717Y-81138678D01*
X186737542Y-81082853D01*
X186716663Y-81000000D01*
X186737542Y-80917147D01*
X193262458Y-80917147D01*
X193283337Y-81000000D01*
X193262458Y-81082853D01*
X193318283Y-81138678D01*
X193321219Y-81150328D01*
X193334627Y-81155022D01*
X194000000Y-81820395D01*
X194663905Y-81156490D01*
X194678781Y-81150328D01*
X194681717Y-81138678D01*
X194737542Y-81082853D01*
X194716663Y-81000000D01*
X194737542Y-80917147D01*
X195262458Y-80917147D01*
X195283337Y-81000000D01*
X195262458Y-81082853D01*
X195318283Y-81138678D01*
X195321219Y-81150328D01*
X195334627Y-81155022D01*
X196000000Y-81820395D01*
X196663905Y-81156490D01*
X196678781Y-81150328D01*
X196681717Y-81138678D01*
X196737542Y-81082853D01*
X196716663Y-81000000D01*
X196737542Y-80917147D01*
X203262458Y-80917147D01*
X203283337Y-81000000D01*
X203262458Y-81082853D01*
X203318283Y-81138678D01*
X203321219Y-81150328D01*
X203334627Y-81155022D01*
X204000000Y-81820395D01*
X204663905Y-81156490D01*
X204678781Y-81150328D01*
X204681717Y-81138678D01*
X204737542Y-81082853D01*
X204716663Y-81000000D01*
X204737542Y-80917147D01*
X205262458Y-80917147D01*
X205283337Y-81000000D01*
X205262458Y-81082853D01*
X205318283Y-81138678D01*
X205321219Y-81150328D01*
X205334627Y-81155022D01*
X206000000Y-81820395D01*
X206663905Y-81156490D01*
X206678781Y-81150328D01*
X206681717Y-81138678D01*
X206737542Y-81082853D01*
X206716663Y-81000000D01*
X206737542Y-80917147D01*
X206681717Y-80861322D01*
X206678781Y-80849672D01*
X206665373Y-80844978D01*
X206000000Y-80179605D01*
X205336095Y-80843510D01*
X205321219Y-80849672D01*
X205318283Y-80861322D01*
X205262458Y-80917147D01*
X204737542Y-80917147D01*
X204681717Y-80861322D01*
X204678781Y-80849672D01*
X204665373Y-80844978D01*
X204000000Y-80179605D01*
X203336095Y-80843510D01*
X203321219Y-80849672D01*
X203318283Y-80861322D01*
X203262458Y-80917147D01*
X196737542Y-80917147D01*
X196681717Y-80861322D01*
X196678781Y-80849672D01*
X196665373Y-80844978D01*
X196000000Y-80179605D01*
X195336095Y-80843510D01*
X195321219Y-80849672D01*
X195318283Y-80861322D01*
X195262458Y-80917147D01*
X194737542Y-80917147D01*
X194681717Y-80861322D01*
X194678781Y-80849672D01*
X194665373Y-80844978D01*
X194000000Y-80179605D01*
X193336095Y-80843510D01*
X193321219Y-80849672D01*
X193318283Y-80861322D01*
X193262458Y-80917147D01*
X186737542Y-80917147D01*
X186681717Y-80861322D01*
X186678781Y-80849672D01*
X186665373Y-80844978D01*
X186000000Y-80179605D01*
X185336095Y-80843510D01*
X185321219Y-80849672D01*
X185318283Y-80861322D01*
X185262458Y-80917147D01*
X184737542Y-80917147D01*
X184681717Y-80861322D01*
X184678781Y-80849672D01*
X184665373Y-80844978D01*
X184000000Y-80179605D01*
X183336095Y-80843510D01*
X183321219Y-80849672D01*
X183318283Y-80861322D01*
X183262458Y-80917147D01*
X176737542Y-80917147D01*
X176681717Y-80861322D01*
X176678781Y-80849672D01*
X176665373Y-80844978D01*
X176000000Y-80179605D01*
X175336095Y-80843510D01*
X175321219Y-80849672D01*
X175318283Y-80861322D01*
X175262458Y-80917147D01*
X174737542Y-80917147D01*
X174681717Y-80861322D01*
X174678781Y-80849672D01*
X174665373Y-80844978D01*
X174000000Y-80179605D01*
X173336095Y-80843510D01*
X173321219Y-80849672D01*
X173318283Y-80861322D01*
X173262458Y-80917147D01*
X166737542Y-80917147D01*
X166681717Y-80861322D01*
X166678781Y-80849672D01*
X166665373Y-80844978D01*
X166000000Y-80179605D01*
X165336095Y-80843510D01*
X165321219Y-80849672D01*
X165318283Y-80861322D01*
X165262458Y-80917147D01*
X164737542Y-80917147D01*
X164681717Y-80861322D01*
X164678781Y-80849672D01*
X164665373Y-80844978D01*
X164000000Y-80179605D01*
X163336095Y-80843510D01*
X163321219Y-80849672D01*
X163318283Y-80861322D01*
X163262458Y-80917147D01*
X156737542Y-80917147D01*
X156681717Y-80861322D01*
X156678781Y-80849672D01*
X156665373Y-80844978D01*
X156000000Y-80179605D01*
X155336095Y-80843510D01*
X155321219Y-80849672D01*
X155318283Y-80861322D01*
X155262458Y-80917147D01*
X154737542Y-80917147D01*
X154681717Y-80861322D01*
X154678781Y-80849672D01*
X154665373Y-80844978D01*
X154000000Y-80179605D01*
X153336095Y-80843510D01*
X153321219Y-80849672D01*
X153318283Y-80861322D01*
X153262458Y-80917147D01*
X146737542Y-80917147D01*
X146681717Y-80861322D01*
X146678781Y-80849672D01*
X146665373Y-80844978D01*
X146000000Y-80179605D01*
X145336095Y-80843510D01*
X145321219Y-80849672D01*
X145318283Y-80861322D01*
X145262458Y-80917147D01*
X144737542Y-80917147D01*
X144681717Y-80861322D01*
X144678781Y-80849672D01*
X144665373Y-80844978D01*
X144000000Y-80179605D01*
X143336095Y-80843510D01*
X143321219Y-80849672D01*
X143318283Y-80861322D01*
X143262458Y-80917147D01*
X67805000Y-80917147D01*
X67805000Y-79813100D01*
X142677478Y-79813100D01*
X142706625Y-80333434D01*
X142849672Y-80678781D01*
X143082853Y-80737542D01*
X143820395Y-80000000D01*
X144179605Y-80000000D01*
X144843510Y-80663905D01*
X144849672Y-80678781D01*
X144861322Y-80681717D01*
X144917147Y-80737542D01*
X145000000Y-80716663D01*
X145082853Y-80737542D01*
X145138678Y-80681717D01*
X145150328Y-80678781D01*
X145155022Y-80665373D01*
X145820395Y-80000000D01*
X146179605Y-80000000D01*
X146917147Y-80737542D01*
X147150328Y-80678781D01*
X147322522Y-80186900D01*
X147301584Y-79813100D01*
X152677478Y-79813100D01*
X152706625Y-80333434D01*
X152849672Y-80678781D01*
X153082853Y-80737542D01*
X153820395Y-80000000D01*
X154179605Y-80000000D01*
X154843510Y-80663905D01*
X154849672Y-80678781D01*
X154861322Y-80681717D01*
X154917147Y-80737542D01*
X155000000Y-80716663D01*
X155082853Y-80737542D01*
X155138678Y-80681717D01*
X155150328Y-80678781D01*
X155155022Y-80665373D01*
X155820395Y-80000000D01*
X156179605Y-80000000D01*
X156917147Y-80737542D01*
X157150328Y-80678781D01*
X157322522Y-80186900D01*
X157301584Y-79813100D01*
X162677478Y-79813100D01*
X162706625Y-80333434D01*
X162849672Y-80678781D01*
X163082853Y-80737542D01*
X163820395Y-80000000D01*
X164179605Y-80000000D01*
X164843510Y-80663905D01*
X164849672Y-80678781D01*
X164861322Y-80681717D01*
X164917147Y-80737542D01*
X165000000Y-80716663D01*
X165082853Y-80737542D01*
X165138678Y-80681717D01*
X165150328Y-80678781D01*
X165155022Y-80665373D01*
X165820395Y-80000000D01*
X166179605Y-80000000D01*
X166917147Y-80737542D01*
X167150328Y-80678781D01*
X167322522Y-80186900D01*
X167301584Y-79813100D01*
X172677478Y-79813100D01*
X172706625Y-80333434D01*
X172849672Y-80678781D01*
X173082853Y-80737542D01*
X173820395Y-80000000D01*
X174179605Y-80000000D01*
X174843510Y-80663905D01*
X174849672Y-80678781D01*
X174861322Y-80681717D01*
X174917147Y-80737542D01*
X175000000Y-80716663D01*
X175082853Y-80737542D01*
X175138678Y-80681717D01*
X175150328Y-80678781D01*
X175155022Y-80665373D01*
X175820395Y-80000000D01*
X176179605Y-80000000D01*
X176917147Y-80737542D01*
X177150328Y-80678781D01*
X177322522Y-80186900D01*
X177301584Y-79813100D01*
X182677478Y-79813100D01*
X182706625Y-80333434D01*
X182849672Y-80678781D01*
X183082853Y-80737542D01*
X183820395Y-80000000D01*
X184179605Y-80000000D01*
X184843510Y-80663905D01*
X184849672Y-80678781D01*
X184861322Y-80681717D01*
X184917147Y-80737542D01*
X185000000Y-80716663D01*
X185082853Y-80737542D01*
X185138678Y-80681717D01*
X185150328Y-80678781D01*
X185155022Y-80665373D01*
X185820395Y-80000000D01*
X186179605Y-80000000D01*
X186917147Y-80737542D01*
X187150328Y-80678781D01*
X187322522Y-80186900D01*
X187301584Y-79813100D01*
X192677478Y-79813100D01*
X192706625Y-80333434D01*
X192849672Y-80678781D01*
X193082853Y-80737542D01*
X193820395Y-80000000D01*
X194179605Y-80000000D01*
X194843510Y-80663905D01*
X194849672Y-80678781D01*
X194861322Y-80681717D01*
X194917147Y-80737542D01*
X195000000Y-80716663D01*
X195082853Y-80737542D01*
X195138678Y-80681717D01*
X195150328Y-80678781D01*
X195155022Y-80665373D01*
X195820395Y-80000000D01*
X196179605Y-80000000D01*
X196917147Y-80737542D01*
X197150328Y-80678781D01*
X197322522Y-80186900D01*
X197301584Y-79813100D01*
X202677478Y-79813100D01*
X202706625Y-80333434D01*
X202849672Y-80678781D01*
X203082853Y-80737542D01*
X203820395Y-80000000D01*
X204179605Y-80000000D01*
X204843510Y-80663905D01*
X204849672Y-80678781D01*
X204861322Y-80681717D01*
X204917147Y-80737542D01*
X205000000Y-80716663D01*
X205082853Y-80737542D01*
X205138678Y-80681717D01*
X205150328Y-80678781D01*
X205155022Y-80665373D01*
X205820395Y-80000000D01*
X206179605Y-80000000D01*
X206917147Y-80737542D01*
X207150328Y-80678781D01*
X207322522Y-80186900D01*
X207293375Y-79666566D01*
X207150328Y-79321219D01*
X206917147Y-79262458D01*
X206179605Y-80000000D01*
X205820395Y-80000000D01*
X205156490Y-79336095D01*
X205150328Y-79321219D01*
X205138678Y-79318283D01*
X205082853Y-79262458D01*
X205000000Y-79283337D01*
X204917147Y-79262458D01*
X204861322Y-79318283D01*
X204849672Y-79321219D01*
X204844978Y-79334627D01*
X204179605Y-80000000D01*
X203820395Y-80000000D01*
X203082853Y-79262458D01*
X202849672Y-79321219D01*
X202677478Y-79813100D01*
X197301584Y-79813100D01*
X197293375Y-79666566D01*
X197150328Y-79321219D01*
X196917147Y-79262458D01*
X196179605Y-80000000D01*
X195820395Y-80000000D01*
X195156490Y-79336095D01*
X195150328Y-79321219D01*
X195138678Y-79318283D01*
X195082853Y-79262458D01*
X195000000Y-79283337D01*
X194917147Y-79262458D01*
X194861322Y-79318283D01*
X194849672Y-79321219D01*
X194844978Y-79334627D01*
X194179605Y-80000000D01*
X193820395Y-80000000D01*
X193082853Y-79262458D01*
X192849672Y-79321219D01*
X192677478Y-79813100D01*
X187301584Y-79813100D01*
X187293375Y-79666566D01*
X187150328Y-79321219D01*
X186917147Y-79262458D01*
X186179605Y-80000000D01*
X185820395Y-80000000D01*
X185156490Y-79336095D01*
X185150328Y-79321219D01*
X185138678Y-79318283D01*
X185082853Y-79262458D01*
X185000000Y-79283337D01*
X184917147Y-79262458D01*
X184861322Y-79318283D01*
X184849672Y-79321219D01*
X184844978Y-79334627D01*
X184179605Y-80000000D01*
X183820395Y-80000000D01*
X183082853Y-79262458D01*
X182849672Y-79321219D01*
X182677478Y-79813100D01*
X177301584Y-79813100D01*
X177293375Y-79666566D01*
X177150328Y-79321219D01*
X176917147Y-79262458D01*
X176179605Y-80000000D01*
X175820395Y-80000000D01*
X175156490Y-79336095D01*
X175150328Y-79321219D01*
X175138678Y-79318283D01*
X175082853Y-79262458D01*
X175000000Y-79283337D01*
X174917147Y-79262458D01*
X174861322Y-79318283D01*
X174849672Y-79321219D01*
X174844978Y-79334627D01*
X174179605Y-80000000D01*
X173820395Y-80000000D01*
X173082853Y-79262458D01*
X172849672Y-79321219D01*
X172677478Y-79813100D01*
X167301584Y-79813100D01*
X167293375Y-79666566D01*
X167150328Y-79321219D01*
X166917147Y-79262458D01*
X166179605Y-80000000D01*
X165820395Y-80000000D01*
X165156490Y-79336095D01*
X165150328Y-79321219D01*
X165138678Y-79318283D01*
X165082853Y-79262458D01*
X165000000Y-79283337D01*
X164917147Y-79262458D01*
X164861322Y-79318283D01*
X164849672Y-79321219D01*
X164844978Y-79334627D01*
X164179605Y-80000000D01*
X163820395Y-80000000D01*
X163082853Y-79262458D01*
X162849672Y-79321219D01*
X162677478Y-79813100D01*
X157301584Y-79813100D01*
X157293375Y-79666566D01*
X157150328Y-79321219D01*
X156917147Y-79262458D01*
X156179605Y-80000000D01*
X155820395Y-80000000D01*
X155156490Y-79336095D01*
X155150328Y-79321219D01*
X155138678Y-79318283D01*
X155082853Y-79262458D01*
X155000000Y-79283337D01*
X154917147Y-79262458D01*
X154861322Y-79318283D01*
X154849672Y-79321219D01*
X154844978Y-79334627D01*
X154179605Y-80000000D01*
X153820395Y-80000000D01*
X153082853Y-79262458D01*
X152849672Y-79321219D01*
X152677478Y-79813100D01*
X147301584Y-79813100D01*
X147293375Y-79666566D01*
X147150328Y-79321219D01*
X146917147Y-79262458D01*
X146179605Y-80000000D01*
X145820395Y-80000000D01*
X145156490Y-79336095D01*
X145150328Y-79321219D01*
X145138678Y-79318283D01*
X145082853Y-79262458D01*
X145000000Y-79283337D01*
X144917147Y-79262458D01*
X144861322Y-79318283D01*
X144849672Y-79321219D01*
X144844978Y-79334627D01*
X144179605Y-80000000D01*
X143820395Y-80000000D01*
X143082853Y-79262458D01*
X142849672Y-79321219D01*
X142677478Y-79813100D01*
X67805000Y-79813100D01*
X67805000Y-78917147D01*
X143262458Y-78917147D01*
X143283337Y-79000000D01*
X143262458Y-79082853D01*
X143318283Y-79138678D01*
X143321219Y-79150328D01*
X143334627Y-79155022D01*
X144000000Y-79820395D01*
X144663905Y-79156490D01*
X144678781Y-79150328D01*
X144681717Y-79138678D01*
X144737542Y-79082853D01*
X144716663Y-79000000D01*
X144737542Y-78917147D01*
X145262458Y-78917147D01*
X145283337Y-79000000D01*
X145262458Y-79082853D01*
X145318283Y-79138678D01*
X145321219Y-79150328D01*
X145334627Y-79155022D01*
X146000000Y-79820395D01*
X146663905Y-79156490D01*
X146678781Y-79150328D01*
X146681717Y-79138678D01*
X146737542Y-79082853D01*
X146716663Y-79000000D01*
X146737542Y-78917147D01*
X153262458Y-78917147D01*
X153283337Y-79000000D01*
X153262458Y-79082853D01*
X153318283Y-79138678D01*
X153321219Y-79150328D01*
X153334627Y-79155022D01*
X154000000Y-79820395D01*
X154663905Y-79156490D01*
X154678781Y-79150328D01*
X154681717Y-79138678D01*
X154737542Y-79082853D01*
X154716663Y-79000000D01*
X154737542Y-78917147D01*
X155262458Y-78917147D01*
X155283337Y-79000000D01*
X155262458Y-79082853D01*
X155318283Y-79138678D01*
X155321219Y-79150328D01*
X155334627Y-79155022D01*
X156000000Y-79820395D01*
X156663905Y-79156490D01*
X156678781Y-79150328D01*
X156681717Y-79138678D01*
X156737542Y-79082853D01*
X156716663Y-79000000D01*
X156737542Y-78917147D01*
X163262458Y-78917147D01*
X163283337Y-79000000D01*
X163262458Y-79082853D01*
X163318283Y-79138678D01*
X163321219Y-79150328D01*
X163334627Y-79155022D01*
X164000000Y-79820395D01*
X164663905Y-79156490D01*
X164678781Y-79150328D01*
X164681717Y-79138678D01*
X164737542Y-79082853D01*
X164716663Y-79000000D01*
X164737542Y-78917147D01*
X165262458Y-78917147D01*
X165283337Y-79000000D01*
X165262458Y-79082853D01*
X165318283Y-79138678D01*
X165321219Y-79150328D01*
X165334627Y-79155022D01*
X166000000Y-79820395D01*
X166663905Y-79156490D01*
X166678781Y-79150328D01*
X166681717Y-79138678D01*
X166737542Y-79082853D01*
X166716663Y-79000000D01*
X166737542Y-78917147D01*
X173262458Y-78917147D01*
X173283337Y-79000000D01*
X173262458Y-79082853D01*
X173318283Y-79138678D01*
X173321219Y-79150328D01*
X173334627Y-79155022D01*
X174000000Y-79820395D01*
X174663905Y-79156490D01*
X174678781Y-79150328D01*
X174681717Y-79138678D01*
X174737542Y-79082853D01*
X174716663Y-79000000D01*
X174737542Y-78917147D01*
X175262458Y-78917147D01*
X175283337Y-79000000D01*
X175262458Y-79082853D01*
X175318283Y-79138678D01*
X175321219Y-79150328D01*
X175334627Y-79155022D01*
X176000000Y-79820395D01*
X176663905Y-79156490D01*
X176678781Y-79150328D01*
X176681717Y-79138678D01*
X176737542Y-79082853D01*
X176716663Y-79000000D01*
X176737542Y-78917147D01*
X183262458Y-78917147D01*
X183283337Y-79000000D01*
X183262458Y-79082853D01*
X183318283Y-79138678D01*
X183321219Y-79150328D01*
X183334627Y-79155022D01*
X184000000Y-79820395D01*
X184663905Y-79156490D01*
X184678781Y-79150328D01*
X184681717Y-79138678D01*
X184737542Y-79082853D01*
X184716663Y-79000000D01*
X184737542Y-78917147D01*
X185262458Y-78917147D01*
X185283337Y-79000000D01*
X185262458Y-79082853D01*
X185318283Y-79138678D01*
X185321219Y-79150328D01*
X185334627Y-79155022D01*
X186000000Y-79820395D01*
X186663905Y-79156490D01*
X186678781Y-79150328D01*
X186681717Y-79138678D01*
X186737542Y-79082853D01*
X186716663Y-79000000D01*
X186737542Y-78917147D01*
X193262458Y-78917147D01*
X193283337Y-79000000D01*
X193262458Y-79082853D01*
X193318283Y-79138678D01*
X193321219Y-79150328D01*
X193334627Y-79155022D01*
X194000000Y-79820395D01*
X194663905Y-79156490D01*
X194678781Y-79150328D01*
X194681717Y-79138678D01*
X194737542Y-79082853D01*
X194716663Y-79000000D01*
X194737542Y-78917147D01*
X195262458Y-78917147D01*
X195283337Y-79000000D01*
X195262458Y-79082853D01*
X195318283Y-79138678D01*
X195321219Y-79150328D01*
X195334627Y-79155022D01*
X196000000Y-79820395D01*
X196663905Y-79156490D01*
X196678781Y-79150328D01*
X196681717Y-79138678D01*
X196737542Y-79082853D01*
X196716663Y-79000000D01*
X196737542Y-78917147D01*
X203262458Y-78917147D01*
X203283337Y-79000000D01*
X203262458Y-79082853D01*
X203318283Y-79138678D01*
X203321219Y-79150328D01*
X203334627Y-79155022D01*
X204000000Y-79820395D01*
X204663905Y-79156490D01*
X204678781Y-79150328D01*
X204681717Y-79138678D01*
X204737542Y-79082853D01*
X204716663Y-79000000D01*
X204737542Y-78917147D01*
X205262458Y-78917147D01*
X205283337Y-79000000D01*
X205262458Y-79082853D01*
X205318283Y-79138678D01*
X205321219Y-79150328D01*
X205334627Y-79155022D01*
X206000000Y-79820395D01*
X206663905Y-79156490D01*
X206678781Y-79150328D01*
X206681717Y-79138678D01*
X206737542Y-79082853D01*
X206716663Y-79000000D01*
X206737542Y-78917147D01*
X206681717Y-78861322D01*
X206678781Y-78849672D01*
X206665373Y-78844978D01*
X206000000Y-78179605D01*
X205336095Y-78843510D01*
X205321219Y-78849672D01*
X205318283Y-78861322D01*
X205262458Y-78917147D01*
X204737542Y-78917147D01*
X204681717Y-78861322D01*
X204678781Y-78849672D01*
X204665373Y-78844978D01*
X204000000Y-78179605D01*
X203336095Y-78843510D01*
X203321219Y-78849672D01*
X203318283Y-78861322D01*
X203262458Y-78917147D01*
X196737542Y-78917147D01*
X196681717Y-78861322D01*
X196678781Y-78849672D01*
X196665373Y-78844978D01*
X196000000Y-78179605D01*
X195336095Y-78843510D01*
X195321219Y-78849672D01*
X195318283Y-78861322D01*
X195262458Y-78917147D01*
X194737542Y-78917147D01*
X194681717Y-78861322D01*
X194678781Y-78849672D01*
X194665373Y-78844978D01*
X194000000Y-78179605D01*
X193336095Y-78843510D01*
X193321219Y-78849672D01*
X193318283Y-78861322D01*
X193262458Y-78917147D01*
X186737542Y-78917147D01*
X186681717Y-78861322D01*
X186678781Y-78849672D01*
X186665373Y-78844978D01*
X186000000Y-78179605D01*
X185336095Y-78843510D01*
X185321219Y-78849672D01*
X185318283Y-78861322D01*
X185262458Y-78917147D01*
X184737542Y-78917147D01*
X184681717Y-78861322D01*
X184678781Y-78849672D01*
X184665373Y-78844978D01*
X184000000Y-78179605D01*
X183336095Y-78843510D01*
X183321219Y-78849672D01*
X183318283Y-78861322D01*
X183262458Y-78917147D01*
X176737542Y-78917147D01*
X176681717Y-78861322D01*
X176678781Y-78849672D01*
X176665373Y-78844978D01*
X176000000Y-78179605D01*
X175336095Y-78843510D01*
X175321219Y-78849672D01*
X175318283Y-78861322D01*
X175262458Y-78917147D01*
X174737542Y-78917147D01*
X174681717Y-78861322D01*
X174678781Y-78849672D01*
X174665373Y-78844978D01*
X174000000Y-78179605D01*
X173336095Y-78843510D01*
X173321219Y-78849672D01*
X173318283Y-78861322D01*
X173262458Y-78917147D01*
X166737542Y-78917147D01*
X166681717Y-78861322D01*
X166678781Y-78849672D01*
X166665373Y-78844978D01*
X166000000Y-78179605D01*
X165336095Y-78843510D01*
X165321219Y-78849672D01*
X165318283Y-78861322D01*
X165262458Y-78917147D01*
X164737542Y-78917147D01*
X164681717Y-78861322D01*
X164678781Y-78849672D01*
X164665373Y-78844978D01*
X164000000Y-78179605D01*
X163336095Y-78843510D01*
X163321219Y-78849672D01*
X163318283Y-78861322D01*
X163262458Y-78917147D01*
X156737542Y-78917147D01*
X156681717Y-78861322D01*
X156678781Y-78849672D01*
X156665373Y-78844978D01*
X156000000Y-78179605D01*
X155336095Y-78843510D01*
X155321219Y-78849672D01*
X155318283Y-78861322D01*
X155262458Y-78917147D01*
X154737542Y-78917147D01*
X154681717Y-78861322D01*
X154678781Y-78849672D01*
X154665373Y-78844978D01*
X154000000Y-78179605D01*
X153336095Y-78843510D01*
X153321219Y-78849672D01*
X153318283Y-78861322D01*
X153262458Y-78917147D01*
X146737542Y-78917147D01*
X146681717Y-78861322D01*
X146678781Y-78849672D01*
X146665373Y-78844978D01*
X146000000Y-78179605D01*
X145336095Y-78843510D01*
X145321219Y-78849672D01*
X145318283Y-78861322D01*
X145262458Y-78917147D01*
X144737542Y-78917147D01*
X144681717Y-78861322D01*
X144678781Y-78849672D01*
X144665373Y-78844978D01*
X144000000Y-78179605D01*
X143336095Y-78843510D01*
X143321219Y-78849672D01*
X143318283Y-78861322D01*
X143262458Y-78917147D01*
X67805000Y-78917147D01*
X67805000Y-77072122D01*
X125342825Y-77072122D01*
X125557466Y-77590332D01*
X126019608Y-78085012D01*
X126635877Y-78365183D01*
X126905000Y-78247604D01*
X126905000Y-76803000D01*
X127159000Y-76803000D01*
X127159000Y-78247604D01*
X127428123Y-78365183D01*
X128044392Y-78085012D01*
X128506534Y-77590332D01*
X128721175Y-77072122D01*
X128603125Y-76803000D01*
X127159000Y-76803000D01*
X126905000Y-76803000D01*
X125460875Y-76803000D01*
X125342825Y-77072122D01*
X67805000Y-77072122D01*
X67805000Y-75433175D01*
X68510430Y-75433175D01*
X68633565Y-75720788D01*
X69315734Y-75980707D01*
X70045443Y-75959786D01*
X70622435Y-75720788D01*
X70745570Y-75433175D01*
X69628000Y-74315605D01*
X68510430Y-75433175D01*
X67805000Y-75433175D01*
X67805000Y-74824792D01*
X67883921Y-74745871D01*
X68043212Y-75130435D01*
X68330825Y-75253570D01*
X69448395Y-74136000D01*
X69807605Y-74136000D01*
X70925175Y-75253570D01*
X71212788Y-75130435D01*
X71472707Y-74448266D01*
X71451786Y-73718557D01*
X71212788Y-73141565D01*
X70925175Y-73018430D01*
X69807605Y-74136000D01*
X69448395Y-74136000D01*
X69434253Y-74121858D01*
X69613858Y-73942253D01*
X69628000Y-73956395D01*
X70745570Y-72838825D01*
X70622435Y-72551212D01*
X70228628Y-72401164D01*
X70960896Y-71668896D01*
X71369513Y-71057358D01*
X71513000Y-70336000D01*
X71513000Y-67433000D01*
X81451000Y-67433000D01*
X81451000Y-72972808D01*
X81284559Y-73079910D01*
X81139569Y-73292110D01*
X81088560Y-73544000D01*
X81088560Y-75744000D01*
X81132838Y-75979317D01*
X81271910Y-76195441D01*
X81484110Y-76340431D01*
X81736000Y-76391440D01*
X83936000Y-76391440D01*
X84171317Y-76347162D01*
X84387441Y-76208090D01*
X84532431Y-75995890D01*
X84583440Y-75744000D01*
X84583440Y-74644000D01*
X88687009Y-74644000D01*
X88819078Y-75307956D01*
X89195179Y-75870830D01*
X89758053Y-76246931D01*
X90422009Y-76379000D01*
X90489991Y-76379000D01*
X90988311Y-76279878D01*
X125342825Y-76279878D01*
X125460875Y-76549000D01*
X126905000Y-76549000D01*
X126905000Y-75104396D01*
X127159000Y-75104396D01*
X127159000Y-76549000D01*
X128603125Y-76549000D01*
X128721175Y-76279878D01*
X128506534Y-75761668D01*
X128044392Y-75266988D01*
X127428123Y-74986817D01*
X127159000Y-75104396D01*
X126905000Y-75104396D01*
X126635877Y-74986817D01*
X126019608Y-75266988D01*
X125557466Y-75761668D01*
X125342825Y-76279878D01*
X90988311Y-76279878D01*
X91153947Y-76246931D01*
X91480103Y-76029000D01*
X97060000Y-76029000D01*
X97590017Y-75923573D01*
X98039343Y-75623343D01*
X100599350Y-73063336D01*
X100695419Y-73044227D01*
X100790045Y-72981000D01*
X121204000Y-72981000D01*
X121734017Y-72875573D01*
X122183343Y-72575343D01*
X122931343Y-71827343D01*
X123231574Y-71378016D01*
X123337000Y-70848000D01*
X123337000Y-69933000D01*
X128347546Y-69933000D01*
X128321818Y-69950191D01*
X128308771Y-69955582D01*
X128298692Y-69965643D01*
X128084657Y-70108657D01*
X127942892Y-70320824D01*
X127932902Y-70330796D01*
X127927441Y-70343947D01*
X127784427Y-70557983D01*
X127734646Y-70808249D01*
X127729232Y-70821287D01*
X127729220Y-70835529D01*
X127679000Y-71088000D01*
X127728781Y-71338267D01*
X127728769Y-71352383D01*
X127734207Y-71365544D01*
X127784427Y-71618017D01*
X127926191Y-71830182D01*
X127931582Y-71843229D01*
X127941643Y-71853308D01*
X128084657Y-72067343D01*
X128296824Y-72209108D01*
X128306796Y-72219098D01*
X128319947Y-72224559D01*
X128533983Y-72367573D01*
X128784249Y-72417354D01*
X128797287Y-72422768D01*
X128811529Y-72422780D01*
X129064000Y-72473000D01*
X132112000Y-72473000D01*
X132642017Y-72367573D01*
X133091343Y-72067343D01*
X134651516Y-70507170D01*
X134759001Y-70462758D01*
X134759001Y-72010313D01*
X133672657Y-73096657D01*
X133372427Y-73545983D01*
X133267000Y-74076000D01*
X133267000Y-75004808D01*
X133100559Y-75111910D01*
X132955569Y-75324110D01*
X132904560Y-75576000D01*
X132904560Y-77776000D01*
X132948838Y-78011317D01*
X133087910Y-78227441D01*
X133300110Y-78372431D01*
X133552000Y-78423440D01*
X135752000Y-78423440D01*
X135987317Y-78379162D01*
X136203441Y-78240090D01*
X136348431Y-78027890D01*
X136399440Y-77776000D01*
X136399440Y-77385000D01*
X142827344Y-77385000D01*
X142677478Y-77813100D01*
X142706625Y-78333434D01*
X142849672Y-78678781D01*
X143082853Y-78737542D01*
X143820395Y-78000000D01*
X143806253Y-77985858D01*
X143985858Y-77806253D01*
X144000000Y-77820395D01*
X144014143Y-77806253D01*
X144193748Y-77985858D01*
X144179605Y-78000000D01*
X144843510Y-78663905D01*
X144849672Y-78678781D01*
X144861322Y-78681717D01*
X144917147Y-78737542D01*
X145000000Y-78716663D01*
X145082853Y-78737542D01*
X145138678Y-78681717D01*
X145150328Y-78678781D01*
X145155022Y-78665373D01*
X145820395Y-78000000D01*
X145806253Y-77985858D01*
X145985858Y-77806253D01*
X146000000Y-77820395D01*
X146014143Y-77806253D01*
X146193748Y-77985858D01*
X146179605Y-78000000D01*
X146917147Y-78737542D01*
X147150328Y-78678781D01*
X147322522Y-78186900D01*
X147293375Y-77666566D01*
X147176747Y-77385000D01*
X152827344Y-77385000D01*
X152677478Y-77813100D01*
X152706625Y-78333434D01*
X152849672Y-78678781D01*
X153082853Y-78737542D01*
X153820395Y-78000000D01*
X153806253Y-77985858D01*
X153985858Y-77806253D01*
X154000000Y-77820395D01*
X154014143Y-77806253D01*
X154193748Y-77985858D01*
X154179605Y-78000000D01*
X154843510Y-78663905D01*
X154849672Y-78678781D01*
X154861322Y-78681717D01*
X154917147Y-78737542D01*
X155000000Y-78716663D01*
X155082853Y-78737542D01*
X155138678Y-78681717D01*
X155150328Y-78678781D01*
X155155022Y-78665373D01*
X155820395Y-78000000D01*
X155806253Y-77985858D01*
X155985858Y-77806253D01*
X156000000Y-77820395D01*
X156014143Y-77806253D01*
X156193748Y-77985858D01*
X156179605Y-78000000D01*
X156917147Y-78737542D01*
X157150328Y-78678781D01*
X157322522Y-78186900D01*
X157293375Y-77666566D01*
X157176747Y-77385000D01*
X162827344Y-77385000D01*
X162677478Y-77813100D01*
X162706625Y-78333434D01*
X162849672Y-78678781D01*
X163082853Y-78737542D01*
X163820395Y-78000000D01*
X163806253Y-77985858D01*
X163985858Y-77806253D01*
X164000000Y-77820395D01*
X164014143Y-77806253D01*
X164193748Y-77985858D01*
X164179605Y-78000000D01*
X164843510Y-78663905D01*
X164849672Y-78678781D01*
X164861322Y-78681717D01*
X164917147Y-78737542D01*
X165000000Y-78716663D01*
X165082853Y-78737542D01*
X165138678Y-78681717D01*
X165150328Y-78678781D01*
X165155022Y-78665373D01*
X165820395Y-78000000D01*
X165806253Y-77985858D01*
X165985858Y-77806253D01*
X166000000Y-77820395D01*
X166014143Y-77806253D01*
X166193748Y-77985858D01*
X166179605Y-78000000D01*
X166917147Y-78737542D01*
X167150328Y-78678781D01*
X167322522Y-78186900D01*
X167293375Y-77666566D01*
X167176747Y-77385000D01*
X172827344Y-77385000D01*
X172677478Y-77813100D01*
X172706625Y-78333434D01*
X172849672Y-78678781D01*
X173082853Y-78737542D01*
X173820395Y-78000000D01*
X173806253Y-77985858D01*
X173985858Y-77806253D01*
X174000000Y-77820395D01*
X174014143Y-77806253D01*
X174193748Y-77985858D01*
X174179605Y-78000000D01*
X174843510Y-78663905D01*
X174849672Y-78678781D01*
X174861322Y-78681717D01*
X174917147Y-78737542D01*
X175000000Y-78716663D01*
X175082853Y-78737542D01*
X175138678Y-78681717D01*
X175150328Y-78678781D01*
X175155022Y-78665373D01*
X175820395Y-78000000D01*
X175806253Y-77985858D01*
X175985858Y-77806253D01*
X176000000Y-77820395D01*
X176014143Y-77806253D01*
X176193748Y-77985858D01*
X176179605Y-78000000D01*
X176917147Y-78737542D01*
X177150328Y-78678781D01*
X177322522Y-78186900D01*
X177293375Y-77666566D01*
X177176747Y-77385000D01*
X182827344Y-77385000D01*
X182677478Y-77813100D01*
X182706625Y-78333434D01*
X182849672Y-78678781D01*
X183082853Y-78737542D01*
X183820395Y-78000000D01*
X183806253Y-77985858D01*
X183985858Y-77806253D01*
X184000000Y-77820395D01*
X184014143Y-77806253D01*
X184193748Y-77985858D01*
X184179605Y-78000000D01*
X184843510Y-78663905D01*
X184849672Y-78678781D01*
X184861322Y-78681717D01*
X184917147Y-78737542D01*
X185000000Y-78716663D01*
X185082853Y-78737542D01*
X185138678Y-78681717D01*
X185150328Y-78678781D01*
X185155022Y-78665373D01*
X185820395Y-78000000D01*
X185806253Y-77985858D01*
X185985858Y-77806253D01*
X186000000Y-77820395D01*
X186014143Y-77806253D01*
X186193748Y-77985858D01*
X186179605Y-78000000D01*
X186917147Y-78737542D01*
X187150328Y-78678781D01*
X187322522Y-78186900D01*
X187293375Y-77666566D01*
X187176747Y-77385000D01*
X192827344Y-77385000D01*
X192677478Y-77813100D01*
X192706625Y-78333434D01*
X192849672Y-78678781D01*
X193082853Y-78737542D01*
X193820395Y-78000000D01*
X193806253Y-77985858D01*
X193985858Y-77806253D01*
X194000000Y-77820395D01*
X194014143Y-77806253D01*
X194193748Y-77985858D01*
X194179605Y-78000000D01*
X194843510Y-78663905D01*
X194849672Y-78678781D01*
X194861322Y-78681717D01*
X194917147Y-78737542D01*
X195000000Y-78716663D01*
X195082853Y-78737542D01*
X195138678Y-78681717D01*
X195150328Y-78678781D01*
X195155022Y-78665373D01*
X195820395Y-78000000D01*
X195806253Y-77985858D01*
X195985858Y-77806253D01*
X196000000Y-77820395D01*
X196014143Y-77806253D01*
X196193748Y-77985858D01*
X196179605Y-78000000D01*
X196917147Y-78737542D01*
X197150328Y-78678781D01*
X197322522Y-78186900D01*
X197293375Y-77666566D01*
X197176747Y-77385000D01*
X202827344Y-77385000D01*
X202677478Y-77813100D01*
X202706625Y-78333434D01*
X202849672Y-78678781D01*
X203082853Y-78737542D01*
X203820395Y-78000000D01*
X203806253Y-77985858D01*
X203985858Y-77806253D01*
X204000000Y-77820395D01*
X204014143Y-77806253D01*
X204193748Y-77985858D01*
X204179605Y-78000000D01*
X204843510Y-78663905D01*
X204849672Y-78678781D01*
X204861322Y-78681717D01*
X204917147Y-78737542D01*
X205000000Y-78716663D01*
X205082853Y-78737542D01*
X205138678Y-78681717D01*
X205150328Y-78678781D01*
X205155022Y-78665373D01*
X205820395Y-78000000D01*
X206179605Y-78000000D01*
X206917147Y-78737542D01*
X207150328Y-78678781D01*
X207322522Y-78186900D01*
X207293375Y-77666566D01*
X207150328Y-77321219D01*
X206917147Y-77262458D01*
X206179605Y-78000000D01*
X205820395Y-78000000D01*
X205806253Y-77985858D01*
X205985858Y-77806253D01*
X206000000Y-77820395D01*
X206562580Y-77257815D01*
X206979343Y-76979343D01*
X207279573Y-76530017D01*
X207385000Y-76000000D01*
X207279573Y-75469983D01*
X206979343Y-75020657D01*
X206948428Y-75000000D01*
X206979343Y-74979343D01*
X207279573Y-74530017D01*
X207385000Y-74000000D01*
X207385000Y-70000000D01*
X207279573Y-69469983D01*
X206979343Y-69020657D01*
X206530017Y-68720427D01*
X206000000Y-68615000D01*
X144000000Y-68615000D01*
X143685490Y-68677560D01*
X143325000Y-68677560D01*
X143089683Y-68721838D01*
X142873559Y-68860910D01*
X142728569Y-69073110D01*
X142677560Y-69325000D01*
X142677560Y-69685490D01*
X142615000Y-70000000D01*
X142615000Y-74000000D01*
X142720427Y-74530017D01*
X142777211Y-74615000D01*
X136071686Y-74615000D01*
X137123344Y-73563342D01*
X137185724Y-73469983D01*
X137423574Y-73114016D01*
X137529001Y-72583999D01*
X137529001Y-68095999D01*
X137423574Y-67565982D01*
X137123344Y-67116656D01*
X135691440Y-65684752D01*
X135691440Y-65616000D01*
X135647162Y-65380683D01*
X135623300Y-65343599D01*
X143264699Y-65343599D01*
X143528281Y-65981515D01*
X144015918Y-66470004D01*
X144653373Y-66734699D01*
X145343599Y-66735301D01*
X145981515Y-66471719D01*
X146470004Y-65984082D01*
X146734699Y-65346627D01*
X146734701Y-65343599D01*
X202264699Y-65343599D01*
X202528281Y-65981515D01*
X203015918Y-66470004D01*
X203653373Y-66734699D01*
X204343599Y-66735301D01*
X204981515Y-66471719D01*
X205470004Y-65984082D01*
X205734699Y-65346627D01*
X205735301Y-64656401D01*
X205471719Y-64018485D01*
X204984082Y-63529996D01*
X204346627Y-63265301D01*
X203656401Y-63264699D01*
X203018485Y-63528281D01*
X202529996Y-64015918D01*
X202265301Y-64653373D01*
X202264699Y-65343599D01*
X146734701Y-65343599D01*
X146735301Y-64656401D01*
X146471719Y-64018485D01*
X145984082Y-63529996D01*
X145346627Y-63265301D01*
X144656401Y-63264699D01*
X144018485Y-63528281D01*
X143529996Y-64015918D01*
X143265301Y-64653373D01*
X143264699Y-65343599D01*
X135623300Y-65343599D01*
X135508090Y-65164559D01*
X135295890Y-65019569D01*
X135044000Y-64968560D01*
X133244000Y-64968560D01*
X133008683Y-65012838D01*
X132792559Y-65151910D01*
X132647569Y-65364110D01*
X132596560Y-65616000D01*
X132596560Y-65684752D01*
X131118312Y-67163000D01*
X129729834Y-67163000D01*
X129742396Y-67157797D01*
X130130764Y-66810663D01*
X130356727Y-66341331D01*
X130234206Y-66135000D01*
X129191000Y-66135000D01*
X129191000Y-66155000D01*
X128937000Y-66155000D01*
X128937000Y-66135000D01*
X127893794Y-66135000D01*
X127771273Y-66341331D01*
X127997236Y-66810663D01*
X128385604Y-67157797D01*
X128398166Y-67163000D01*
X123020620Y-67163000D01*
X123003890Y-67151569D01*
X122765799Y-67103354D01*
X122780139Y-67055745D01*
X121952000Y-66227605D01*
X121123861Y-67055745D01*
X121138145Y-67103167D01*
X120916683Y-67144838D01*
X120700559Y-67283910D01*
X120555569Y-67496110D01*
X120504560Y-67748000D01*
X120504560Y-69348000D01*
X120548838Y-69583317D01*
X120567000Y-69611542D01*
X120567000Y-70211000D01*
X109195979Y-70211000D01*
X109283515Y-70174831D01*
X109673461Y-69785564D01*
X109884759Y-69276702D01*
X109885240Y-68725715D01*
X109674831Y-68216485D01*
X109285564Y-67826539D01*
X108776702Y-67615241D01*
X108225715Y-67614760D01*
X107716485Y-67825169D01*
X107326539Y-68214436D01*
X107115241Y-68723298D01*
X107114760Y-69274285D01*
X107325169Y-69783515D01*
X107714436Y-70173461D01*
X107804840Y-70211000D01*
X101075989Y-70211000D01*
X101345966Y-69963576D01*
X101599046Y-69420742D01*
X101478997Y-69183000D01*
X100235000Y-69183000D01*
X100235000Y-69203000D01*
X99981000Y-69203000D01*
X99981000Y-69183000D01*
X98737003Y-69183000D01*
X98616954Y-69420742D01*
X98870034Y-69963576D01*
X99260582Y-70321499D01*
X99022591Y-70480519D01*
X98689845Y-70978509D01*
X98670736Y-71074578D01*
X96486314Y-73259000D01*
X91480103Y-73259000D01*
X91153947Y-73041069D01*
X90489991Y-72909000D01*
X90422009Y-72909000D01*
X89758053Y-73041069D01*
X89195179Y-73417170D01*
X88819078Y-73980044D01*
X88687009Y-74644000D01*
X84583440Y-74644000D01*
X84583440Y-73544000D01*
X84539162Y-73308683D01*
X84400090Y-73092559D01*
X84221000Y-72970192D01*
X84221000Y-69555745D01*
X84547861Y-69555745D01*
X84621995Y-69801864D01*
X85159223Y-69994965D01*
X85729454Y-69967778D01*
X86130005Y-69801864D01*
X86204139Y-69555745D01*
X85376000Y-68727605D01*
X84547861Y-69555745D01*
X84221000Y-69555745D01*
X84221000Y-69331784D01*
X84368255Y-69376139D01*
X85196395Y-68548000D01*
X85555605Y-68548000D01*
X86383745Y-69376139D01*
X86629864Y-69302005D01*
X86822965Y-68764777D01*
X86795778Y-68194546D01*
X86629864Y-67793995D01*
X86383745Y-67719861D01*
X85555605Y-68548000D01*
X85196395Y-68548000D01*
X85182252Y-68533858D01*
X85361858Y-68354252D01*
X85376000Y-68368395D01*
X86204139Y-67540255D01*
X86189855Y-67492833D01*
X86411317Y-67451162D01*
X86439542Y-67433000D01*
X98563759Y-67433000D01*
X98604838Y-67651317D01*
X98743910Y-67867441D01*
X98956110Y-68012431D01*
X99007146Y-68022766D01*
X98870034Y-68148424D01*
X98616954Y-68691258D01*
X98737003Y-68929000D01*
X99981000Y-68929000D01*
X99981000Y-68909000D01*
X100235000Y-68909000D01*
X100235000Y-68929000D01*
X101478997Y-68929000D01*
X101599046Y-68691258D01*
X101345966Y-68148424D01*
X101211462Y-68025156D01*
X101243317Y-68019162D01*
X101459441Y-67880090D01*
X101604431Y-67667890D01*
X101655440Y-67416000D01*
X101655440Y-65831223D01*
X120505035Y-65831223D01*
X120532222Y-66401454D01*
X120698136Y-66802005D01*
X120944255Y-66876139D01*
X121772395Y-66048000D01*
X122131605Y-66048000D01*
X122959745Y-66876139D01*
X123205864Y-66802005D01*
X123398965Y-66264777D01*
X123371778Y-65694546D01*
X123363545Y-65674669D01*
X127771273Y-65674669D01*
X127893794Y-65881000D01*
X128937000Y-65881000D01*
X128937000Y-64838626D01*
X129191000Y-64838626D01*
X129191000Y-65881000D01*
X130234206Y-65881000D01*
X130356727Y-65674669D01*
X130130764Y-65205337D01*
X129742396Y-64858203D01*
X129397329Y-64715284D01*
X129191000Y-64838626D01*
X128937000Y-64838626D01*
X128730671Y-64715284D01*
X128385604Y-64858203D01*
X127997236Y-65205337D01*
X127771273Y-65674669D01*
X123363545Y-65674669D01*
X123205864Y-65293995D01*
X122959745Y-65219861D01*
X122131605Y-66048000D01*
X121772395Y-66048000D01*
X120944255Y-65219861D01*
X120698136Y-65293995D01*
X120505035Y-65831223D01*
X101655440Y-65831223D01*
X101655440Y-65616000D01*
X101611162Y-65380683D01*
X101472090Y-65164559D01*
X101290165Y-65040255D01*
X121123861Y-65040255D01*
X121952000Y-65868395D01*
X122780139Y-65040255D01*
X122706005Y-64794136D01*
X122168777Y-64601035D01*
X121598546Y-64628222D01*
X121197995Y-64794136D01*
X121123861Y-65040255D01*
X101290165Y-65040255D01*
X101259890Y-65019569D01*
X101008000Y-64968560D01*
X100469537Y-64968560D01*
X100170017Y-64768427D01*
X99640000Y-64663000D01*
X86444620Y-64663000D01*
X86427890Y-64651569D01*
X86176000Y-64600560D01*
X84576000Y-64600560D01*
X84340683Y-64644838D01*
X84312458Y-64663000D01*
X70216000Y-64663000D01*
X69700795Y-64765480D01*
X69628000Y-64751000D01*
X69439173Y-64788560D01*
X68428000Y-64788560D01*
X68192683Y-64832838D01*
X67976559Y-64971910D01*
X67831569Y-65184110D01*
X67780560Y-65436000D01*
X67780560Y-66447173D01*
X67743000Y-66636000D01*
X67743000Y-69555208D01*
X64587104Y-72711104D01*
X64178487Y-73322641D01*
X64130609Y-73563342D01*
X64035000Y-74044000D01*
X64035000Y-80735000D01*
X50000000Y-80735000D01*
X49308439Y-80872560D01*
X48900000Y-80872560D01*
X48664683Y-80916838D01*
X48448559Y-81055910D01*
X48303569Y-81268110D01*
X48252560Y-81520000D01*
X48252560Y-81928439D01*
X48115000Y-82620000D01*
X43611307Y-82620000D01*
X43369459Y-82510146D01*
X42179605Y-83700000D01*
X41820395Y-83700000D01*
X40630541Y-82510146D01*
X40332545Y-82645504D01*
X40055934Y-83363880D01*
X31127000Y-83363880D01*
X31127000Y-82330541D01*
X40810146Y-82330541D01*
X42000000Y-83520395D01*
X43189854Y-82330541D01*
X43054496Y-82032545D01*
X42336120Y-81755934D01*
X41566573Y-81775290D01*
X40945504Y-82032545D01*
X40810146Y-82330541D01*
X31127000Y-82330541D01*
X31127000Y-79383207D01*
X37064665Y-79383207D01*
X37358630Y-80094658D01*
X37902479Y-80639457D01*
X38613416Y-80934663D01*
X39383207Y-80935335D01*
X40094658Y-80641370D01*
X40639457Y-80097521D01*
X40934663Y-79386584D01*
X40934671Y-79377569D01*
X46677240Y-73635000D01*
X47715151Y-73635000D01*
X47667104Y-73667104D01*
X44281648Y-77052560D01*
X43700000Y-77052560D01*
X43464683Y-77096838D01*
X43248559Y-77235910D01*
X43103569Y-77448110D01*
X43052560Y-77700000D01*
X43052560Y-80300000D01*
X43096838Y-80535317D01*
X43235910Y-80751441D01*
X43448110Y-80896431D01*
X43700000Y-80947440D01*
X46300000Y-80947440D01*
X46535317Y-80903162D01*
X46751441Y-80764090D01*
X46896431Y-80551890D01*
X46947440Y-80300000D01*
X46947440Y-79718352D01*
X49780792Y-76885000D01*
X50000000Y-76885000D01*
X50721358Y-76741513D01*
X51332896Y-76332896D01*
X51741513Y-75721358D01*
X51885000Y-75000000D01*
X51741513Y-74278642D01*
X51332896Y-73667104D01*
X51284849Y-73635000D01*
X52322760Y-73635000D01*
X54252560Y-75564799D01*
X54252560Y-76100000D01*
X54296838Y-76335317D01*
X54435910Y-76551441D01*
X54648110Y-76696431D01*
X54900000Y-76747440D01*
X57100000Y-76747440D01*
X57335317Y-76703162D01*
X57551441Y-76564090D01*
X57696431Y-76351890D01*
X57747440Y-76100000D01*
X57747440Y-73900000D01*
X57703162Y-73664683D01*
X57564090Y-73448559D01*
X57351890Y-73303569D01*
X57100000Y-73252560D01*
X56564799Y-73252560D01*
X54156120Y-70843880D01*
X53625688Y-70489457D01*
X53000000Y-70364999D01*
X52999995Y-70365000D01*
X46000005Y-70365000D01*
X46000000Y-70364999D01*
X45374312Y-70489457D01*
X44843880Y-70843880D01*
X38623090Y-77064670D01*
X38616793Y-77064665D01*
X37905342Y-77358630D01*
X37360543Y-77902479D01*
X37065337Y-78613416D01*
X37064665Y-79383207D01*
X31127000Y-79383207D01*
X31127000Y-67845385D01*
X31226811Y-67343599D01*
X35264699Y-67343599D01*
X35528281Y-67981515D01*
X36015918Y-68470004D01*
X36653373Y-68734699D01*
X37343599Y-68735301D01*
X37981515Y-68471719D01*
X38470004Y-67984082D01*
X38734699Y-67346627D01*
X38735301Y-66656401D01*
X38471719Y-66018485D01*
X37984082Y-65529996D01*
X37346627Y-65265301D01*
X36656401Y-65264699D01*
X36018485Y-65528281D01*
X35529996Y-66015918D01*
X35265301Y-66653373D01*
X35264699Y-67343599D01*
X31226811Y-67343599D01*
X31323850Y-66855756D01*
X36075232Y-62104374D01*
X38029980Y-61127000D01*
X201947394Y-61127000D01*
X202910197Y-62089803D01*
X202910197Y-62089803D01*
G37*
X202910197Y-62089803D02*
X202952211Y-62117666D01*
X203000000Y-62127000D01*
X203970020Y-62127000D01*
X205924768Y-63104374D01*
X207249826Y-64429432D01*
X208532718Y-66349416D01*
X208603653Y-66491285D01*
X208873000Y-67845385D01*
X208873000Y-92154615D01*
X208603653Y-93508715D01*
X208532718Y-93650584D01*
X207249826Y-95570568D01*
X205570566Y-97249828D01*
X203559559Y-98593539D01*
X202154615Y-98873000D01*
X40020610Y-98873000D01*
X37048720Y-97882370D01*
X33094660Y-95905340D01*
X31813790Y-93343599D01*
X35264699Y-93343599D01*
X35528281Y-93981515D01*
X36015918Y-94470004D01*
X36653373Y-94734699D01*
X37343599Y-94735301D01*
X37981515Y-94471719D01*
X38340109Y-94113750D01*
X67793000Y-94113750D01*
X67793000Y-95154309D01*
X67889673Y-95387698D01*
X68068301Y-95566327D01*
X68301690Y-95663000D01*
X69342250Y-95663000D01*
X69501000Y-95504250D01*
X69501000Y-93955000D01*
X69755000Y-93955000D01*
X69755000Y-95504250D01*
X69913750Y-95663000D01*
X70954310Y-95663000D01*
X71187699Y-95566327D01*
X71366327Y-95387698D01*
X71463000Y-95154309D01*
X71463000Y-94113750D01*
X71304250Y-93955000D01*
X69755000Y-93955000D01*
X69501000Y-93955000D01*
X67951750Y-93955000D01*
X67793000Y-94113750D01*
X38340109Y-94113750D01*
X38470004Y-93984082D01*
X38734699Y-93346627D01*
X38735301Y-92656401D01*
X38671377Y-92501691D01*
X67793000Y-92501691D01*
X67793000Y-93542250D01*
X67951750Y-93701000D01*
X69501000Y-93701000D01*
X69501000Y-92151750D01*
X69755000Y-92151750D01*
X69755000Y-93701000D01*
X71304250Y-93701000D01*
X71463000Y-93542250D01*
X71463000Y-92501691D01*
X71366327Y-92268302D01*
X71187699Y-92089673D01*
X70954310Y-91993000D01*
X69913750Y-91993000D01*
X69755000Y-92151750D01*
X69501000Y-92151750D01*
X69342250Y-91993000D01*
X68301690Y-91993000D01*
X68068301Y-92089673D01*
X67889673Y-92268302D01*
X67793000Y-92501691D01*
X38671377Y-92501691D01*
X38471719Y-92018485D01*
X37984082Y-91529996D01*
X37346627Y-91265301D01*
X36656401Y-91264699D01*
X36018485Y-91528281D01*
X35529996Y-92015918D01*
X35265301Y-92653373D01*
X35264699Y-93343599D01*
X31813790Y-93343599D01*
X31127000Y-91970020D01*
X31127000Y-85069459D01*
X40810146Y-85069459D01*
X40945504Y-85367455D01*
X41663880Y-85644066D01*
X42433427Y-85624710D01*
X43054496Y-85367455D01*
X43189854Y-85069459D01*
X42000000Y-83879605D01*
X40810146Y-85069459D01*
X31127000Y-85069459D01*
X31127000Y-83363880D01*
X40055934Y-83363880D01*
X40075290Y-84133427D01*
X40332545Y-84754496D01*
X40630541Y-84889854D01*
X41820395Y-83700000D01*
X42179605Y-83700000D01*
X43369459Y-84889854D01*
X43667455Y-84754496D01*
X43944066Y-84036120D01*
X43924710Y-83266573D01*
X43667455Y-82645504D01*
X43611307Y-82620000D01*
X48115000Y-82620000D01*
X48252560Y-83311561D01*
X48252560Y-83720000D01*
X48296838Y-83955317D01*
X48435910Y-84171441D01*
X48648110Y-84316431D01*
X48900000Y-84367440D01*
X49308439Y-84367440D01*
X50000000Y-84505000D01*
X65139208Y-84505000D01*
X68295104Y-87660896D01*
X68507268Y-87802660D01*
X68587199Y-87882730D01*
X68692607Y-87926499D01*
X68906642Y-88069513D01*
X69156907Y-88119294D01*
X69261395Y-88162681D01*
X69375530Y-88162781D01*
X69628000Y-88213000D01*
X69878265Y-88163219D01*
X69991403Y-88163318D01*
X70096888Y-88119733D01*
X70349359Y-88069513D01*
X70561522Y-87927750D01*
X70666086Y-87884545D01*
X70746863Y-87803908D01*
X70882917Y-87713000D01*
X75134314Y-87713000D01*
X81658111Y-94236797D01*
X81743078Y-94663956D01*
X82119179Y-95226830D01*
X82682053Y-95602931D01*
X83346009Y-95735000D01*
X83413991Y-95735000D01*
X84077947Y-95602931D01*
X84640821Y-95226830D01*
X85016922Y-94663956D01*
X85101889Y-94236797D01*
X85459342Y-93879344D01*
X85759573Y-93430017D01*
X85865000Y-92900001D01*
X85864999Y-92899996D01*
X85864999Y-88348557D01*
X86073690Y-88435000D01*
X86714250Y-88435000D01*
X86873000Y-88276250D01*
X86873000Y-87127000D01*
X87127000Y-87127000D01*
X87127000Y-88276250D01*
X87285750Y-88435000D01*
X87926310Y-88435000D01*
X88159699Y-88338327D01*
X88338327Y-88159698D01*
X88435000Y-87926309D01*
X88435000Y-87285750D01*
X88276250Y-87127000D01*
X87127000Y-87127000D01*
X86873000Y-87127000D01*
X86853000Y-87127000D01*
X86853000Y-86873000D01*
X86873000Y-86873000D01*
X86873000Y-86853000D01*
X87127000Y-86853000D01*
X87127000Y-86873000D01*
X88276250Y-86873000D01*
X88435000Y-86714250D01*
X88435000Y-86073691D01*
X88356842Y-85885000D01*
X92402312Y-85885000D01*
X97888655Y-91371343D01*
X98337981Y-91671573D01*
X98867998Y-91777000D01*
X99081735Y-91777000D01*
X99022591Y-91816519D01*
X98689845Y-92314509D01*
X98670736Y-92410578D01*
X98466314Y-92615000D01*
X92671192Y-92615000D01*
X92564090Y-92448559D01*
X92351890Y-92303569D01*
X92100000Y-92252560D01*
X89900000Y-92252560D01*
X89664683Y-92296838D01*
X89448559Y-92435910D01*
X89303569Y-92648110D01*
X89252560Y-92900000D01*
X89252560Y-95100000D01*
X89296838Y-95335317D01*
X89435910Y-95551441D01*
X89648110Y-95696431D01*
X89900000Y-95747440D01*
X92100000Y-95747440D01*
X92335317Y-95703162D01*
X92551441Y-95564090D01*
X92673808Y-95385000D01*
X99040000Y-95385000D01*
X99570017Y-95279573D01*
X100019343Y-94979343D01*
X100599350Y-94399336D01*
X100695419Y-94380227D01*
X100790045Y-94317000D01*
X120936000Y-94317000D01*
X121466017Y-94211573D01*
X121915343Y-93911343D01*
X122017686Y-93809000D01*
X126846593Y-93809000D01*
X126768427Y-93925983D01*
X126663000Y-94456000D01*
X126768427Y-94986017D01*
X127068657Y-95435343D01*
X127517983Y-95735573D01*
X128048000Y-95841000D01*
X132112000Y-95841000D01*
X132642017Y-95735573D01*
X133091343Y-95435343D01*
X133183087Y-95343599D01*
X143264699Y-95343599D01*
X143528281Y-95981515D01*
X144015918Y-96470004D01*
X144653373Y-96734699D01*
X145343599Y-96735301D01*
X145981515Y-96471719D01*
X146470004Y-95984082D01*
X146734699Y-95346627D01*
X146735301Y-94656401D01*
X146606054Y-94343599D01*
X202264699Y-94343599D01*
X202528281Y-94981515D01*
X203015918Y-95470004D01*
X203653373Y-95734699D01*
X204343599Y-95735301D01*
X204981515Y-95471719D01*
X205470004Y-94984082D01*
X205734699Y-94346627D01*
X205735301Y-93656401D01*
X205471719Y-93018485D01*
X204984082Y-92529996D01*
X204346627Y-92265301D01*
X203656401Y-92264699D01*
X203018485Y-92528281D01*
X202529996Y-93015918D01*
X202265301Y-93653373D01*
X202264699Y-94343599D01*
X146606054Y-94343599D01*
X146471719Y-94018485D01*
X145984082Y-93529996D01*
X145346627Y-93265301D01*
X144656401Y-93264699D01*
X144018485Y-93528281D01*
X143529996Y-94015918D01*
X143265301Y-94653373D01*
X143264699Y-95343599D01*
X133183087Y-95343599D01*
X133539246Y-94987440D01*
X134028000Y-94987440D01*
X134263317Y-94943162D01*
X134479441Y-94804090D01*
X134624431Y-94591890D01*
X134675440Y-94340000D01*
X134675440Y-92540000D01*
X134631162Y-92304683D01*
X134492090Y-92088559D01*
X134279890Y-91943569D01*
X134259466Y-91939433D01*
X134428551Y-91770643D01*
X134662733Y-91206670D01*
X134663265Y-90596009D01*
X134513000Y-90232340D01*
X134513000Y-86393686D01*
X135430788Y-85475898D01*
X135857947Y-85390931D01*
X136184103Y-85173000D01*
X143310485Y-85173000D01*
X143469983Y-85279573D01*
X144000000Y-85385000D01*
X206000000Y-85385000D01*
X206530017Y-85279573D01*
X206979343Y-84979343D01*
X207279573Y-84530017D01*
X207385000Y-84000000D01*
X207279573Y-83469983D01*
X206979343Y-83020657D01*
X206562580Y-82742185D01*
X206000000Y-82179605D01*
X205985858Y-82193748D01*
X205806253Y-82014143D01*
X205820395Y-82000000D01*
X206179605Y-82000000D01*
X206917147Y-82737542D01*
X207150328Y-82678781D01*
X207322522Y-82186900D01*
X207293375Y-81666566D01*
X207150328Y-81321219D01*
X206917147Y-81262458D01*
X206179605Y-82000000D01*
X205820395Y-82000000D01*
X205156490Y-81336095D01*
X205150328Y-81321219D01*
X205138678Y-81318283D01*
X205082853Y-81262458D01*
X205000000Y-81283337D01*
X204917147Y-81262458D01*
X204861322Y-81318283D01*
X204849672Y-81321219D01*
X204844978Y-81334627D01*
X204179605Y-82000000D01*
X204193748Y-82014143D01*
X204014143Y-82193748D01*
X204000000Y-82179605D01*
X203985858Y-82193748D01*
X203806253Y-82014143D01*
X203820395Y-82000000D01*
X203082853Y-81262458D01*
X202849672Y-81321219D01*
X202677478Y-81813100D01*
X202706625Y-82333434D01*
X202823253Y-82615000D01*
X197172656Y-82615000D01*
X197322522Y-82186900D01*
X197293375Y-81666566D01*
X197150328Y-81321219D01*
X196917147Y-81262458D01*
X196179605Y-82000000D01*
X196193748Y-82014143D01*
X196014143Y-82193748D01*
X196000000Y-82179605D01*
X195985858Y-82193748D01*
X195806253Y-82014143D01*
X195820395Y-82000000D01*
X195156490Y-81336095D01*
X195150328Y-81321219D01*
X195138678Y-81318283D01*
X195082853Y-81262458D01*
X195000000Y-81283337D01*
X194917147Y-81262458D01*
X194861322Y-81318283D01*
X194849672Y-81321219D01*
X194844978Y-81334627D01*
X194179605Y-82000000D01*
X194193748Y-82014143D01*
X194014143Y-82193748D01*
X194000000Y-82179605D01*
X193985858Y-82193748D01*
X193806253Y-82014143D01*
X193820395Y-82000000D01*
X193082853Y-81262458D01*
X192849672Y-81321219D01*
X192677478Y-81813100D01*
X192706625Y-82333434D01*
X192823253Y-82615000D01*
X187172656Y-82615000D01*
X187322522Y-82186900D01*
X187293375Y-81666566D01*
X187150328Y-81321219D01*
X186917147Y-81262458D01*
X186179605Y-82000000D01*
X186193748Y-82014143D01*
X186014143Y-82193748D01*
X186000000Y-82179605D01*
X185985858Y-82193748D01*
X185806253Y-82014143D01*
X185820395Y-82000000D01*
X185156490Y-81336095D01*
X185150328Y-81321219D01*
X185138678Y-81318283D01*
X185082853Y-81262458D01*
X185000000Y-81283337D01*
X184917147Y-81262458D01*
X184861322Y-81318283D01*
X184849672Y-81321219D01*
X184844978Y-81334627D01*
X184179605Y-82000000D01*
X184193748Y-82014143D01*
X184014143Y-82193748D01*
X184000000Y-82179605D01*
X183985858Y-82193748D01*
X183806253Y-82014143D01*
X183820395Y-82000000D01*
X183082853Y-81262458D01*
X182849672Y-81321219D01*
X182677478Y-81813100D01*
X182706625Y-82333434D01*
X182823253Y-82615000D01*
X177172656Y-82615000D01*
X177322522Y-82186900D01*
X177293375Y-81666566D01*
X177150328Y-81321219D01*
X176917147Y-81262458D01*
X176179605Y-82000000D01*
X176193748Y-82014143D01*
X176014143Y-82193748D01*
X176000000Y-82179605D01*
X175985858Y-82193748D01*
X175806253Y-82014143D01*
X175820395Y-82000000D01*
X175156490Y-81336095D01*
X175150328Y-81321219D01*
X175138678Y-81318283D01*
X175082853Y-81262458D01*
X175000000Y-81283337D01*
X174917147Y-81262458D01*
X174861322Y-81318283D01*
X174849672Y-81321219D01*
X174844978Y-81334627D01*
X174179605Y-82000000D01*
X174193748Y-82014143D01*
X174014143Y-82193748D01*
X174000000Y-82179605D01*
X173985858Y-82193748D01*
X173806253Y-82014143D01*
X173820395Y-82000000D01*
X173082853Y-81262458D01*
X172849672Y-81321219D01*
X172677478Y-81813100D01*
X172706625Y-82333434D01*
X172823253Y-82615000D01*
X167172656Y-82615000D01*
X167322522Y-82186900D01*
X167293375Y-81666566D01*
X167150328Y-81321219D01*
X166917147Y-81262458D01*
X166179605Y-82000000D01*
X166193748Y-82014143D01*
X166014143Y-82193748D01*
X166000000Y-82179605D01*
X165985858Y-82193748D01*
X165806253Y-82014143D01*
X165820395Y-82000000D01*
X165156490Y-81336095D01*
X165150328Y-81321219D01*
X165138678Y-81318283D01*
X165082853Y-81262458D01*
X165000000Y-81283337D01*
X164917147Y-81262458D01*
X164861322Y-81318283D01*
X164849672Y-81321219D01*
X164844978Y-81334627D01*
X164179605Y-82000000D01*
X164193748Y-82014143D01*
X164014143Y-82193748D01*
X164000000Y-82179605D01*
X163985858Y-82193748D01*
X163806253Y-82014143D01*
X163820395Y-82000000D01*
X163082853Y-81262458D01*
X162849672Y-81321219D01*
X162677478Y-81813100D01*
X162706625Y-82333434D01*
X162823253Y-82615000D01*
X157172656Y-82615000D01*
X157322522Y-82186900D01*
X157293375Y-81666566D01*
X157150328Y-81321219D01*
X156917147Y-81262458D01*
X156179605Y-82000000D01*
X156193748Y-82014143D01*
X156014143Y-82193748D01*
X156000000Y-82179605D01*
X155985858Y-82193748D01*
X155806253Y-82014143D01*
X155820395Y-82000000D01*
X155156490Y-81336095D01*
X155150328Y-81321219D01*
X155138678Y-81318283D01*
X155082853Y-81262458D01*
X155000000Y-81283337D01*
X154917147Y-81262458D01*
X154861322Y-81318283D01*
X154849672Y-81321219D01*
X154844978Y-81334627D01*
X154179605Y-82000000D01*
X154193748Y-82014143D01*
X154014143Y-82193748D01*
X154000000Y-82179605D01*
X153985858Y-82193748D01*
X153806253Y-82014143D01*
X153820395Y-82000000D01*
X153082853Y-81262458D01*
X152849672Y-81321219D01*
X152677478Y-81813100D01*
X152706625Y-82333434D01*
X152823253Y-82615000D01*
X147172656Y-82615000D01*
X147322522Y-82186900D01*
X147293375Y-81666566D01*
X147150328Y-81321219D01*
X146917147Y-81262458D01*
X146179605Y-82000000D01*
X146193748Y-82014143D01*
X146014143Y-82193748D01*
X146000000Y-82179605D01*
X145985858Y-82193748D01*
X145806253Y-82014143D01*
X145820395Y-82000000D01*
X145156490Y-81336095D01*
X145150328Y-81321219D01*
X145138678Y-81318283D01*
X145082853Y-81262458D01*
X145000000Y-81283337D01*
X144917147Y-81262458D01*
X144861322Y-81318283D01*
X144849672Y-81321219D01*
X144844978Y-81334627D01*
X144179605Y-82000000D01*
X144193748Y-82014143D01*
X144014143Y-82193748D01*
X144000000Y-82179605D01*
X143985858Y-82193748D01*
X143806253Y-82014143D01*
X143820395Y-82000000D01*
X143082853Y-81262458D01*
X142849672Y-81321219D01*
X142677478Y-81813100D01*
X142706625Y-82333434D01*
X142735440Y-82403000D01*
X136184103Y-82403000D01*
X135857947Y-82185069D01*
X135193991Y-82053000D01*
X135126009Y-82053000D01*
X134462053Y-82185069D01*
X133899179Y-82561170D01*
X133523078Y-83124044D01*
X133438111Y-83551203D01*
X132148657Y-84840657D01*
X131848427Y-85289983D01*
X131743000Y-85820000D01*
X131743000Y-89515000D01*
X130204002Y-89515000D01*
X129673985Y-89620427D01*
X129305916Y-89866363D01*
X129285993Y-89879675D01*
X129395419Y-89568878D01*
X129366664Y-89038560D01*
X129219042Y-88682169D01*
X128983275Y-88620331D01*
X128227605Y-89376000D01*
X128241748Y-89390142D01*
X128062142Y-89569748D01*
X128048000Y-89555605D01*
X127292331Y-90311275D01*
X127354169Y-90547042D01*
X127855122Y-90723419D01*
X128385440Y-90694664D01*
X128496764Y-90648552D01*
X128106316Y-91039000D01*
X122800842Y-91039000D01*
X122879000Y-90850309D01*
X122879000Y-90209750D01*
X122720250Y-90051000D01*
X121571000Y-90051000D01*
X121571000Y-90071000D01*
X121317000Y-90071000D01*
X121317000Y-90051000D01*
X120167750Y-90051000D01*
X120009000Y-90209750D01*
X120009000Y-90850309D01*
X120105673Y-91083698D01*
X120284301Y-91262327D01*
X120490835Y-91347876D01*
X120291363Y-91547000D01*
X101134265Y-91547000D01*
X101193409Y-91507481D01*
X101526155Y-91009491D01*
X101643000Y-90422072D01*
X101643000Y-90361928D01*
X101625567Y-90274285D01*
X107114760Y-90274285D01*
X107325169Y-90783515D01*
X107714436Y-91173461D01*
X108223298Y-91384759D01*
X108774285Y-91385240D01*
X109283515Y-91174831D01*
X109673461Y-90785564D01*
X109884759Y-90276702D01*
X109885240Y-89725715D01*
X109674831Y-89216485D01*
X109456418Y-88997691D01*
X120009000Y-88997691D01*
X120009000Y-89638250D01*
X120167750Y-89797000D01*
X121317000Y-89797000D01*
X121317000Y-88647750D01*
X121571000Y-88647750D01*
X121571000Y-89797000D01*
X122720250Y-89797000D01*
X122879000Y-89638250D01*
X122879000Y-89183122D01*
X126700581Y-89183122D01*
X126729336Y-89713440D01*
X126876958Y-90069831D01*
X127112725Y-90131669D01*
X127868395Y-89376000D01*
X127112725Y-88620331D01*
X126876958Y-88682169D01*
X126700581Y-89183122D01*
X122879000Y-89183122D01*
X122879000Y-88997691D01*
X122782327Y-88764302D01*
X122603699Y-88585673D01*
X122370310Y-88489000D01*
X121729750Y-88489000D01*
X121571000Y-88647750D01*
X121317000Y-88647750D01*
X121158250Y-88489000D01*
X120517690Y-88489000D01*
X120284301Y-88585673D01*
X120105673Y-88764302D01*
X120009000Y-88997691D01*
X109456418Y-88997691D01*
X109285564Y-88826539D01*
X108776702Y-88615241D01*
X108225715Y-88614760D01*
X107716485Y-88825169D01*
X107326539Y-89214436D01*
X107115241Y-89723298D01*
X107114760Y-90274285D01*
X101625567Y-90274285D01*
X101526155Y-89774509D01*
X101238417Y-89343878D01*
X101367699Y-89290327D01*
X101546327Y-89111698D01*
X101643000Y-88878309D01*
X101643000Y-88440725D01*
X127292331Y-88440725D01*
X128048000Y-89196395D01*
X128803669Y-88440725D01*
X128741831Y-88204958D01*
X128240878Y-88028581D01*
X127710560Y-88057336D01*
X127354169Y-88204958D01*
X127292331Y-88440725D01*
X101643000Y-88440725D01*
X101643000Y-88137750D01*
X101484250Y-87979000D01*
X100235000Y-87979000D01*
X100235000Y-87999000D01*
X99981000Y-87999000D01*
X99981000Y-87979000D01*
X98731750Y-87979000D01*
X98573000Y-88137750D01*
X98573000Y-88138316D01*
X97260375Y-86825691D01*
X98573000Y-86825691D01*
X98573000Y-87566250D01*
X98731750Y-87725000D01*
X99981000Y-87725000D01*
X99981000Y-86475750D01*
X100235000Y-86475750D01*
X100235000Y-87725000D01*
X101484250Y-87725000D01*
X101643000Y-87566250D01*
X101643000Y-86825691D01*
X101546327Y-86592302D01*
X101367699Y-86413673D01*
X101134310Y-86317000D01*
X100393750Y-86317000D01*
X100235000Y-86475750D01*
X99981000Y-86475750D01*
X99822250Y-86317000D01*
X99081690Y-86317000D01*
X98848301Y-86413673D01*
X98669673Y-86592302D01*
X98573000Y-86825691D01*
X97260375Y-86825691D01*
X94508434Y-84073750D01*
X125805000Y-84073750D01*
X125805000Y-85014310D01*
X125901673Y-85247699D01*
X126080302Y-85426327D01*
X126313691Y-85523000D01*
X127254250Y-85523000D01*
X127413000Y-85364250D01*
X127413000Y-83915000D01*
X127667000Y-83915000D01*
X127667000Y-85364250D01*
X127825750Y-85523000D01*
X128766309Y-85523000D01*
X128999698Y-85426327D01*
X129178327Y-85247699D01*
X129275000Y-85014310D01*
X129275000Y-84073750D01*
X129116250Y-83915000D01*
X127667000Y-83915000D01*
X127413000Y-83915000D01*
X125963750Y-83915000D01*
X125805000Y-84073750D01*
X94508434Y-84073750D01*
X93955341Y-83520657D01*
X93879502Y-83469983D01*
X93506015Y-83220427D01*
X92975998Y-83115000D01*
X87406502Y-83115000D01*
X87286691Y-83065250D01*
X86715813Y-83064752D01*
X86594203Y-83115000D01*
X85868630Y-83115000D01*
X85338614Y-83220426D01*
X84889287Y-83520657D01*
X83500656Y-84909288D01*
X83200426Y-85358614D01*
X83094999Y-85888631D01*
X83094999Y-91756313D01*
X76687343Y-85348657D01*
X76635360Y-85313923D01*
X76238017Y-85048427D01*
X75708000Y-84943000D01*
X70908792Y-84943000D01*
X68527482Y-82561690D01*
X125805000Y-82561690D01*
X125805000Y-83502250D01*
X125963750Y-83661000D01*
X127413000Y-83661000D01*
X127413000Y-82211750D01*
X127667000Y-82211750D01*
X127667000Y-83661000D01*
X129116250Y-83661000D01*
X129275000Y-83502250D01*
X129275000Y-82561690D01*
X129178327Y-82328301D01*
X128999698Y-82149673D01*
X128766309Y-82053000D01*
X127825750Y-82053000D01*
X127667000Y-82211750D01*
X127413000Y-82211750D01*
X127254250Y-82053000D01*
X126313691Y-82053000D01*
X126080302Y-82149673D01*
X125901673Y-82328301D01*
X125805000Y-82561690D01*
X68527482Y-82561690D01*
X67805000Y-81839208D01*
X67805000Y-80917147D01*
X143262458Y-80917147D01*
X143283337Y-81000000D01*
X143262458Y-81082853D01*
X143318283Y-81138678D01*
X143321219Y-81150328D01*
X143334627Y-81155022D01*
X144000000Y-81820395D01*
X144663905Y-81156490D01*
X144678781Y-81150328D01*
X144681717Y-81138678D01*
X144737542Y-81082853D01*
X144716663Y-81000000D01*
X144737542Y-80917147D01*
X145262458Y-80917147D01*
X145283337Y-81000000D01*
X145262458Y-81082853D01*
X145318283Y-81138678D01*
X145321219Y-81150328D01*
X145334627Y-81155022D01*
X146000000Y-81820395D01*
X146663905Y-81156490D01*
X146678781Y-81150328D01*
X146681717Y-81138678D01*
X146737542Y-81082853D01*
X146716663Y-81000000D01*
X146737542Y-80917147D01*
X153262458Y-80917147D01*
X153283337Y-81000000D01*
X153262458Y-81082853D01*
X153318283Y-81138678D01*
X153321219Y-81150328D01*
X153334627Y-81155022D01*
X154000000Y-81820395D01*
X154663905Y-81156490D01*
X154678781Y-81150328D01*
X154681717Y-81138678D01*
X154737542Y-81082853D01*
X154716663Y-81000000D01*
X154737542Y-80917147D01*
X155262458Y-80917147D01*
X155283337Y-81000000D01*
X155262458Y-81082853D01*
X155318283Y-81138678D01*
X155321219Y-81150328D01*
X155334627Y-81155022D01*
X156000000Y-81820395D01*
X156663905Y-81156490D01*
X156678781Y-81150328D01*
X156681717Y-81138678D01*
X156737542Y-81082853D01*
X156716663Y-81000000D01*
X156737542Y-80917147D01*
X163262458Y-80917147D01*
X163283337Y-81000000D01*
X163262458Y-81082853D01*
X163318283Y-81138678D01*
X163321219Y-81150328D01*
X163334627Y-81155022D01*
X164000000Y-81820395D01*
X164663905Y-81156490D01*
X164678781Y-81150328D01*
X164681717Y-81138678D01*
X164737542Y-81082853D01*
X164716663Y-81000000D01*
X164737542Y-80917147D01*
X165262458Y-80917147D01*
X165283337Y-81000000D01*
X165262458Y-81082853D01*
X165318283Y-81138678D01*
X165321219Y-81150328D01*
X165334627Y-81155022D01*
X166000000Y-81820395D01*
X166663905Y-81156490D01*
X166678781Y-81150328D01*
X166681717Y-81138678D01*
X166737542Y-81082853D01*
X166716663Y-81000000D01*
X166737542Y-80917147D01*
X173262458Y-80917147D01*
X173283337Y-81000000D01*
X173262458Y-81082853D01*
X173318283Y-81138678D01*
X173321219Y-81150328D01*
X173334627Y-81155022D01*
X174000000Y-81820395D01*
X174663905Y-81156490D01*
X174678781Y-81150328D01*
X174681717Y-81138678D01*
X174737542Y-81082853D01*
X174716663Y-81000000D01*
X174737542Y-80917147D01*
X175262458Y-80917147D01*
X175283337Y-81000000D01*
X175262458Y-81082853D01*
X175318283Y-81138678D01*
X175321219Y-81150328D01*
X175334627Y-81155022D01*
X176000000Y-81820395D01*
X176663905Y-81156490D01*
X176678781Y-81150328D01*
X176681717Y-81138678D01*
X176737542Y-81082853D01*
X176716663Y-81000000D01*
X176737542Y-80917147D01*
X183262458Y-80917147D01*
X183283337Y-81000000D01*
X183262458Y-81082853D01*
X183318283Y-81138678D01*
X183321219Y-81150328D01*
X183334627Y-81155022D01*
X184000000Y-81820395D01*
X184663905Y-81156490D01*
X184678781Y-81150328D01*
X184681717Y-81138678D01*
X184737542Y-81082853D01*
X184716663Y-81000000D01*
X184737542Y-80917147D01*
X185262458Y-80917147D01*
X185283337Y-81000000D01*
X185262458Y-81082853D01*
X185318283Y-81138678D01*
X185321219Y-81150328D01*
X185334627Y-81155022D01*
X186000000Y-81820395D01*
X186663905Y-81156490D01*
X186678781Y-81150328D01*
X186681717Y-81138678D01*
X186737542Y-81082853D01*
X186716663Y-81000000D01*
X186737542Y-80917147D01*
X193262458Y-80917147D01*
X193283337Y-81000000D01*
X193262458Y-81082853D01*
X193318283Y-81138678D01*
X193321219Y-81150328D01*
X193334627Y-81155022D01*
X194000000Y-81820395D01*
X194663905Y-81156490D01*
X194678781Y-81150328D01*
X194681717Y-81138678D01*
X194737542Y-81082853D01*
X194716663Y-81000000D01*
X194737542Y-80917147D01*
X195262458Y-80917147D01*
X195283337Y-81000000D01*
X195262458Y-81082853D01*
X195318283Y-81138678D01*
X195321219Y-81150328D01*
X195334627Y-81155022D01*
X196000000Y-81820395D01*
X196663905Y-81156490D01*
X196678781Y-81150328D01*
X196681717Y-81138678D01*
X196737542Y-81082853D01*
X196716663Y-81000000D01*
X196737542Y-80917147D01*
X203262458Y-80917147D01*
X203283337Y-81000000D01*
X203262458Y-81082853D01*
X203318283Y-81138678D01*
X203321219Y-81150328D01*
X203334627Y-81155022D01*
X204000000Y-81820395D01*
X204663905Y-81156490D01*
X204678781Y-81150328D01*
X204681717Y-81138678D01*
X204737542Y-81082853D01*
X204716663Y-81000000D01*
X204737542Y-80917147D01*
X205262458Y-80917147D01*
X205283337Y-81000000D01*
X205262458Y-81082853D01*
X205318283Y-81138678D01*
X205321219Y-81150328D01*
X205334627Y-81155022D01*
X206000000Y-81820395D01*
X206663905Y-81156490D01*
X206678781Y-81150328D01*
X206681717Y-81138678D01*
X206737542Y-81082853D01*
X206716663Y-81000000D01*
X206737542Y-80917147D01*
X206681717Y-80861322D01*
X206678781Y-80849672D01*
X206665373Y-80844978D01*
X206000000Y-80179605D01*
X205336095Y-80843510D01*
X205321219Y-80849672D01*
X205318283Y-80861322D01*
X205262458Y-80917147D01*
X204737542Y-80917147D01*
X204681717Y-80861322D01*
X204678781Y-80849672D01*
X204665373Y-80844978D01*
X204000000Y-80179605D01*
X203336095Y-80843510D01*
X203321219Y-80849672D01*
X203318283Y-80861322D01*
X203262458Y-80917147D01*
X196737542Y-80917147D01*
X196681717Y-80861322D01*
X196678781Y-80849672D01*
X196665373Y-80844978D01*
X196000000Y-80179605D01*
X195336095Y-80843510D01*
X195321219Y-80849672D01*
X195318283Y-80861322D01*
X195262458Y-80917147D01*
X194737542Y-80917147D01*
X194681717Y-80861322D01*
X194678781Y-80849672D01*
X194665373Y-80844978D01*
X194000000Y-80179605D01*
X193336095Y-80843510D01*
X193321219Y-80849672D01*
X193318283Y-80861322D01*
X193262458Y-80917147D01*
X186737542Y-80917147D01*
X186681717Y-80861322D01*
X186678781Y-80849672D01*
X186665373Y-80844978D01*
X186000000Y-80179605D01*
X185336095Y-80843510D01*
X185321219Y-80849672D01*
X185318283Y-80861322D01*
X185262458Y-80917147D01*
X184737542Y-80917147D01*
X184681717Y-80861322D01*
X184678781Y-80849672D01*
X184665373Y-80844978D01*
X184000000Y-80179605D01*
X183336095Y-80843510D01*
X183321219Y-80849672D01*
X183318283Y-80861322D01*
X183262458Y-80917147D01*
X176737542Y-80917147D01*
X176681717Y-80861322D01*
X176678781Y-80849672D01*
X176665373Y-80844978D01*
X176000000Y-80179605D01*
X175336095Y-80843510D01*
X175321219Y-80849672D01*
X175318283Y-80861322D01*
X175262458Y-80917147D01*
X174737542Y-80917147D01*
X174681717Y-80861322D01*
X174678781Y-80849672D01*
X174665373Y-80844978D01*
X174000000Y-80179605D01*
X173336095Y-80843510D01*
X173321219Y-80849672D01*
X173318283Y-80861322D01*
X173262458Y-80917147D01*
X166737542Y-80917147D01*
X166681717Y-80861322D01*
X166678781Y-80849672D01*
X166665373Y-80844978D01*
X166000000Y-80179605D01*
X165336095Y-80843510D01*
X165321219Y-80849672D01*
X165318283Y-80861322D01*
X165262458Y-80917147D01*
X164737542Y-80917147D01*
X164681717Y-80861322D01*
X164678781Y-80849672D01*
X164665373Y-80844978D01*
X164000000Y-80179605D01*
X163336095Y-80843510D01*
X163321219Y-80849672D01*
X163318283Y-80861322D01*
X163262458Y-80917147D01*
X156737542Y-80917147D01*
X156681717Y-80861322D01*
X156678781Y-80849672D01*
X156665373Y-80844978D01*
X156000000Y-80179605D01*
X155336095Y-80843510D01*
X155321219Y-80849672D01*
X155318283Y-80861322D01*
X155262458Y-80917147D01*
X154737542Y-80917147D01*
X154681717Y-80861322D01*
X154678781Y-80849672D01*
X154665373Y-80844978D01*
X154000000Y-80179605D01*
X153336095Y-80843510D01*
X153321219Y-80849672D01*
X153318283Y-80861322D01*
X153262458Y-80917147D01*
X146737542Y-80917147D01*
X146681717Y-80861322D01*
X146678781Y-80849672D01*
X146665373Y-80844978D01*
X146000000Y-80179605D01*
X145336095Y-80843510D01*
X145321219Y-80849672D01*
X145318283Y-80861322D01*
X145262458Y-80917147D01*
X144737542Y-80917147D01*
X144681717Y-80861322D01*
X144678781Y-80849672D01*
X144665373Y-80844978D01*
X144000000Y-80179605D01*
X143336095Y-80843510D01*
X143321219Y-80849672D01*
X143318283Y-80861322D01*
X143262458Y-80917147D01*
X67805000Y-80917147D01*
X67805000Y-79813100D01*
X142677478Y-79813100D01*
X142706625Y-80333434D01*
X142849672Y-80678781D01*
X143082853Y-80737542D01*
X143820395Y-80000000D01*
X144179605Y-80000000D01*
X144843510Y-80663905D01*
X144849672Y-80678781D01*
X144861322Y-80681717D01*
X144917147Y-80737542D01*
X145000000Y-80716663D01*
X145082853Y-80737542D01*
X145138678Y-80681717D01*
X145150328Y-80678781D01*
X145155022Y-80665373D01*
X145820395Y-80000000D01*
X146179605Y-80000000D01*
X146917147Y-80737542D01*
X147150328Y-80678781D01*
X147322522Y-80186900D01*
X147301584Y-79813100D01*
X152677478Y-79813100D01*
X152706625Y-80333434D01*
X152849672Y-80678781D01*
X153082853Y-80737542D01*
X153820395Y-80000000D01*
X154179605Y-80000000D01*
X154843510Y-80663905D01*
X154849672Y-80678781D01*
X154861322Y-80681717D01*
X154917147Y-80737542D01*
X155000000Y-80716663D01*
X155082853Y-80737542D01*
X155138678Y-80681717D01*
X155150328Y-80678781D01*
X155155022Y-80665373D01*
X155820395Y-80000000D01*
X156179605Y-80000000D01*
X156917147Y-80737542D01*
X157150328Y-80678781D01*
X157322522Y-80186900D01*
X157301584Y-79813100D01*
X162677478Y-79813100D01*
X162706625Y-80333434D01*
X162849672Y-80678781D01*
X163082853Y-80737542D01*
X163820395Y-80000000D01*
X164179605Y-80000000D01*
X164843510Y-80663905D01*
X164849672Y-80678781D01*
X164861322Y-80681717D01*
X164917147Y-80737542D01*
X165000000Y-80716663D01*
X165082853Y-80737542D01*
X165138678Y-80681717D01*
X165150328Y-80678781D01*
X165155022Y-80665373D01*
X165820395Y-80000000D01*
X166179605Y-80000000D01*
X166917147Y-80737542D01*
X167150328Y-80678781D01*
X167322522Y-80186900D01*
X167301584Y-79813100D01*
X172677478Y-79813100D01*
X172706625Y-80333434D01*
X172849672Y-80678781D01*
X173082853Y-80737542D01*
X173820395Y-80000000D01*
X174179605Y-80000000D01*
X174843510Y-80663905D01*
X174849672Y-80678781D01*
X174861322Y-80681717D01*
X174917147Y-80737542D01*
X175000000Y-80716663D01*
X175082853Y-80737542D01*
X175138678Y-80681717D01*
X175150328Y-80678781D01*
X175155022Y-80665373D01*
X175820395Y-80000000D01*
X176179605Y-80000000D01*
X176917147Y-80737542D01*
X177150328Y-80678781D01*
X177322522Y-80186900D01*
X177301584Y-79813100D01*
X182677478Y-79813100D01*
X182706625Y-80333434D01*
X182849672Y-80678781D01*
X183082853Y-80737542D01*
X183820395Y-80000000D01*
X184179605Y-80000000D01*
X184843510Y-80663905D01*
X184849672Y-80678781D01*
X184861322Y-80681717D01*
X184917147Y-80737542D01*
X185000000Y-80716663D01*
X185082853Y-80737542D01*
X185138678Y-80681717D01*
X185150328Y-80678781D01*
X185155022Y-80665373D01*
X185820395Y-80000000D01*
X186179605Y-80000000D01*
X186917147Y-80737542D01*
X187150328Y-80678781D01*
X187322522Y-80186900D01*
X187301584Y-79813100D01*
X192677478Y-79813100D01*
X192706625Y-80333434D01*
X192849672Y-80678781D01*
X193082853Y-80737542D01*
X193820395Y-80000000D01*
X194179605Y-80000000D01*
X194843510Y-80663905D01*
X194849672Y-80678781D01*
X194861322Y-80681717D01*
X194917147Y-80737542D01*
X195000000Y-80716663D01*
X195082853Y-80737542D01*
X195138678Y-80681717D01*
X195150328Y-80678781D01*
X195155022Y-80665373D01*
X195820395Y-80000000D01*
X196179605Y-80000000D01*
X196917147Y-80737542D01*
X197150328Y-80678781D01*
X197322522Y-80186900D01*
X197301584Y-79813100D01*
X202677478Y-79813100D01*
X202706625Y-80333434D01*
X202849672Y-80678781D01*
X203082853Y-80737542D01*
X203820395Y-80000000D01*
X204179605Y-80000000D01*
X204843510Y-80663905D01*
X204849672Y-80678781D01*
X204861322Y-80681717D01*
X204917147Y-80737542D01*
X205000000Y-80716663D01*
X205082853Y-80737542D01*
X205138678Y-80681717D01*
X205150328Y-80678781D01*
X205155022Y-80665373D01*
X205820395Y-80000000D01*
X206179605Y-80000000D01*
X206917147Y-80737542D01*
X207150328Y-80678781D01*
X207322522Y-80186900D01*
X207293375Y-79666566D01*
X207150328Y-79321219D01*
X206917147Y-79262458D01*
X206179605Y-80000000D01*
X205820395Y-80000000D01*
X205156490Y-79336095D01*
X205150328Y-79321219D01*
X205138678Y-79318283D01*
X205082853Y-79262458D01*
X205000000Y-79283337D01*
X204917147Y-79262458D01*
X204861322Y-79318283D01*
X204849672Y-79321219D01*
X204844978Y-79334627D01*
X204179605Y-80000000D01*
X203820395Y-80000000D01*
X203082853Y-79262458D01*
X202849672Y-79321219D01*
X202677478Y-79813100D01*
X197301584Y-79813100D01*
X197293375Y-79666566D01*
X197150328Y-79321219D01*
X196917147Y-79262458D01*
X196179605Y-80000000D01*
X195820395Y-80000000D01*
X195156490Y-79336095D01*
X195150328Y-79321219D01*
X195138678Y-79318283D01*
X195082853Y-79262458D01*
X195000000Y-79283337D01*
X194917147Y-79262458D01*
X194861322Y-79318283D01*
X194849672Y-79321219D01*
X194844978Y-79334627D01*
X194179605Y-80000000D01*
X193820395Y-80000000D01*
X193082853Y-79262458D01*
X192849672Y-79321219D01*
X192677478Y-79813100D01*
X187301584Y-79813100D01*
X187293375Y-79666566D01*
X187150328Y-79321219D01*
X186917147Y-79262458D01*
X186179605Y-80000000D01*
X185820395Y-80000000D01*
X185156490Y-79336095D01*
X185150328Y-79321219D01*
X185138678Y-79318283D01*
X185082853Y-79262458D01*
X185000000Y-79283337D01*
X184917147Y-79262458D01*
X184861322Y-79318283D01*
X184849672Y-79321219D01*
X184844978Y-79334627D01*
X184179605Y-80000000D01*
X183820395Y-80000000D01*
X183082853Y-79262458D01*
X182849672Y-79321219D01*
X182677478Y-79813100D01*
X177301584Y-79813100D01*
X177293375Y-79666566D01*
X177150328Y-79321219D01*
X176917147Y-79262458D01*
X176179605Y-80000000D01*
X175820395Y-80000000D01*
X175156490Y-79336095D01*
X175150328Y-79321219D01*
X175138678Y-79318283D01*
X175082853Y-79262458D01*
X175000000Y-79283337D01*
X174917147Y-79262458D01*
X174861322Y-79318283D01*
X174849672Y-79321219D01*
X174844978Y-79334627D01*
X174179605Y-80000000D01*
X173820395Y-80000000D01*
X173082853Y-79262458D01*
X172849672Y-79321219D01*
X172677478Y-79813100D01*
X167301584Y-79813100D01*
X167293375Y-79666566D01*
X167150328Y-79321219D01*
X166917147Y-79262458D01*
X166179605Y-80000000D01*
X165820395Y-80000000D01*
X165156490Y-79336095D01*
X165150328Y-79321219D01*
X165138678Y-79318283D01*
X165082853Y-79262458D01*
X165000000Y-79283337D01*
X164917147Y-79262458D01*
X164861322Y-79318283D01*
X164849672Y-79321219D01*
X164844978Y-79334627D01*
X164179605Y-80000000D01*
X163820395Y-80000000D01*
X163082853Y-79262458D01*
X162849672Y-79321219D01*
X162677478Y-79813100D01*
X157301584Y-79813100D01*
X157293375Y-79666566D01*
X157150328Y-79321219D01*
X156917147Y-79262458D01*
X156179605Y-80000000D01*
X155820395Y-80000000D01*
X155156490Y-79336095D01*
X155150328Y-79321219D01*
X155138678Y-79318283D01*
X155082853Y-79262458D01*
X155000000Y-79283337D01*
X154917147Y-79262458D01*
X154861322Y-79318283D01*
X154849672Y-79321219D01*
X154844978Y-79334627D01*
X154179605Y-80000000D01*
X153820395Y-80000000D01*
X153082853Y-79262458D01*
X152849672Y-79321219D01*
X152677478Y-79813100D01*
X147301584Y-79813100D01*
X147293375Y-79666566D01*
X147150328Y-79321219D01*
X146917147Y-79262458D01*
X146179605Y-80000000D01*
X145820395Y-80000000D01*
X145156490Y-79336095D01*
X145150328Y-79321219D01*
X145138678Y-79318283D01*
X145082853Y-79262458D01*
X145000000Y-79283337D01*
X144917147Y-79262458D01*
X144861322Y-79318283D01*
X144849672Y-79321219D01*
X144844978Y-79334627D01*
X144179605Y-80000000D01*
X143820395Y-80000000D01*
X143082853Y-79262458D01*
X142849672Y-79321219D01*
X142677478Y-79813100D01*
X67805000Y-79813100D01*
X67805000Y-78917147D01*
X143262458Y-78917147D01*
X143283337Y-79000000D01*
X143262458Y-79082853D01*
X143318283Y-79138678D01*
X143321219Y-79150328D01*
X143334627Y-79155022D01*
X144000000Y-79820395D01*
X144663905Y-79156490D01*
X144678781Y-79150328D01*
X144681717Y-79138678D01*
X144737542Y-79082853D01*
X144716663Y-79000000D01*
X144737542Y-78917147D01*
X145262458Y-78917147D01*
X145283337Y-79000000D01*
X145262458Y-79082853D01*
X145318283Y-79138678D01*
X145321219Y-79150328D01*
X145334627Y-79155022D01*
X146000000Y-79820395D01*
X146663905Y-79156490D01*
X146678781Y-79150328D01*
X146681717Y-79138678D01*
X146737542Y-79082853D01*
X146716663Y-79000000D01*
X146737542Y-78917147D01*
X153262458Y-78917147D01*
X153283337Y-79000000D01*
X153262458Y-79082853D01*
X153318283Y-79138678D01*
X153321219Y-79150328D01*
X153334627Y-79155022D01*
X154000000Y-79820395D01*
X154663905Y-79156490D01*
X154678781Y-79150328D01*
X154681717Y-79138678D01*
X154737542Y-79082853D01*
X154716663Y-79000000D01*
X154737542Y-78917147D01*
X155262458Y-78917147D01*
X155283337Y-79000000D01*
X155262458Y-79082853D01*
X155318283Y-79138678D01*
X155321219Y-79150328D01*
X155334627Y-79155022D01*
X156000000Y-79820395D01*
X156663905Y-79156490D01*
X156678781Y-79150328D01*
X156681717Y-79138678D01*
X156737542Y-79082853D01*
X156716663Y-79000000D01*
X156737542Y-78917147D01*
X163262458Y-78917147D01*
X163283337Y-79000000D01*
X163262458Y-79082853D01*
X163318283Y-79138678D01*
X163321219Y-79150328D01*
X163334627Y-79155022D01*
X164000000Y-79820395D01*
X164663905Y-79156490D01*
X164678781Y-79150328D01*
X164681717Y-79138678D01*
X164737542Y-79082853D01*
X164716663Y-79000000D01*
X164737542Y-78917147D01*
X165262458Y-78917147D01*
X165283337Y-79000000D01*
X165262458Y-79082853D01*
X165318283Y-79138678D01*
X165321219Y-79150328D01*
X165334627Y-79155022D01*
X166000000Y-79820395D01*
X166663905Y-79156490D01*
X166678781Y-79150328D01*
X166681717Y-79138678D01*
X166737542Y-79082853D01*
X166716663Y-79000000D01*
X166737542Y-78917147D01*
X173262458Y-78917147D01*
X173283337Y-79000000D01*
X173262458Y-79082853D01*
X173318283Y-79138678D01*
X173321219Y-79150328D01*
X173334627Y-79155022D01*
X174000000Y-79820395D01*
X174663905Y-79156490D01*
X174678781Y-79150328D01*
X174681717Y-79138678D01*
X174737542Y-79082853D01*
X174716663Y-79000000D01*
X174737542Y-78917147D01*
X175262458Y-78917147D01*
X175283337Y-79000000D01*
X175262458Y-79082853D01*
X175318283Y-79138678D01*
X175321219Y-79150328D01*
X175334627Y-79155022D01*
X176000000Y-79820395D01*
X176663905Y-79156490D01*
X176678781Y-79150328D01*
X176681717Y-79138678D01*
X176737542Y-79082853D01*
X176716663Y-79000000D01*
X176737542Y-78917147D01*
X183262458Y-78917147D01*
X183283337Y-79000000D01*
X183262458Y-79082853D01*
X183318283Y-79138678D01*
X183321219Y-79150328D01*
X183334627Y-79155022D01*
X184000000Y-79820395D01*
X184663905Y-79156490D01*
X184678781Y-79150328D01*
X184681717Y-79138678D01*
X184737542Y-79082853D01*
X184716663Y-79000000D01*
X184737542Y-78917147D01*
X185262458Y-78917147D01*
X185283337Y-79000000D01*
X185262458Y-79082853D01*
X185318283Y-79138678D01*
X185321219Y-79150328D01*
X185334627Y-79155022D01*
X186000000Y-79820395D01*
X186663905Y-79156490D01*
X186678781Y-79150328D01*
X186681717Y-79138678D01*
X186737542Y-79082853D01*
X186716663Y-79000000D01*
X186737542Y-78917147D01*
X193262458Y-78917147D01*
X193283337Y-79000000D01*
X193262458Y-79082853D01*
X193318283Y-79138678D01*
X193321219Y-79150328D01*
X193334627Y-79155022D01*
X194000000Y-79820395D01*
X194663905Y-79156490D01*
X194678781Y-79150328D01*
X194681717Y-79138678D01*
X194737542Y-79082853D01*
X194716663Y-79000000D01*
X194737542Y-78917147D01*
X195262458Y-78917147D01*
X195283337Y-79000000D01*
X195262458Y-79082853D01*
X195318283Y-79138678D01*
X195321219Y-79150328D01*
X195334627Y-79155022D01*
X196000000Y-79820395D01*
X196663905Y-79156490D01*
X196678781Y-79150328D01*
X196681717Y-79138678D01*
X196737542Y-79082853D01*
X196716663Y-79000000D01*
X196737542Y-78917147D01*
X203262458Y-78917147D01*
X203283337Y-79000000D01*
X203262458Y-79082853D01*
X203318283Y-79138678D01*
X203321219Y-79150328D01*
X203334627Y-79155022D01*
X204000000Y-79820395D01*
X204663905Y-79156490D01*
X204678781Y-79150328D01*
X204681717Y-79138678D01*
X204737542Y-79082853D01*
X204716663Y-79000000D01*
X204737542Y-78917147D01*
X205262458Y-78917147D01*
X205283337Y-79000000D01*
X205262458Y-79082853D01*
X205318283Y-79138678D01*
X205321219Y-79150328D01*
X205334627Y-79155022D01*
X206000000Y-79820395D01*
X206663905Y-79156490D01*
X206678781Y-79150328D01*
X206681717Y-79138678D01*
X206737542Y-79082853D01*
X206716663Y-79000000D01*
X206737542Y-78917147D01*
X206681717Y-78861322D01*
X206678781Y-78849672D01*
X206665373Y-78844978D01*
X206000000Y-78179605D01*
X205336095Y-78843510D01*
X205321219Y-78849672D01*
X205318283Y-78861322D01*
X205262458Y-78917147D01*
X204737542Y-78917147D01*
X204681717Y-78861322D01*
X204678781Y-78849672D01*
X204665373Y-78844978D01*
X204000000Y-78179605D01*
X203336095Y-78843510D01*
X203321219Y-78849672D01*
X203318283Y-78861322D01*
X203262458Y-78917147D01*
X196737542Y-78917147D01*
X196681717Y-78861322D01*
X196678781Y-78849672D01*
X196665373Y-78844978D01*
X196000000Y-78179605D01*
X195336095Y-78843510D01*
X195321219Y-78849672D01*
X195318283Y-78861322D01*
X195262458Y-78917147D01*
X194737542Y-78917147D01*
X194681717Y-78861322D01*
X194678781Y-78849672D01*
X194665373Y-78844978D01*
X194000000Y-78179605D01*
X193336095Y-78843510D01*
X193321219Y-78849672D01*
X193318283Y-78861322D01*
X193262458Y-78917147D01*
X186737542Y-78917147D01*
X186681717Y-78861322D01*
X186678781Y-78849672D01*
X186665373Y-78844978D01*
X186000000Y-78179605D01*
X185336095Y-78843510D01*
X185321219Y-78849672D01*
X185318283Y-78861322D01*
X185262458Y-78917147D01*
X184737542Y-78917147D01*
X184681717Y-78861322D01*
X184678781Y-78849672D01*
X184665373Y-78844978D01*
X184000000Y-78179605D01*
X183336095Y-78843510D01*
X183321219Y-78849672D01*
X183318283Y-78861322D01*
X183262458Y-78917147D01*
X176737542Y-78917147D01*
X176681717Y-78861322D01*
X176678781Y-78849672D01*
X176665373Y-78844978D01*
X176000000Y-78179605D01*
X175336095Y-78843510D01*
X175321219Y-78849672D01*
X175318283Y-78861322D01*
X175262458Y-78917147D01*
X174737542Y-78917147D01*
X174681717Y-78861322D01*
X174678781Y-78849672D01*
X174665373Y-78844978D01*
X174000000Y-78179605D01*
X173336095Y-78843510D01*
X173321219Y-78849672D01*
X173318283Y-78861322D01*
X173262458Y-78917147D01*
X166737542Y-78917147D01*
X166681717Y-78861322D01*
X166678781Y-78849672D01*
X166665373Y-78844978D01*
X166000000Y-78179605D01*
X165336095Y-78843510D01*
X165321219Y-78849672D01*
X165318283Y-78861322D01*
X165262458Y-78917147D01*
X164737542Y-78917147D01*
X164681717Y-78861322D01*
X164678781Y-78849672D01*
X164665373Y-78844978D01*
X164000000Y-78179605D01*
X163336095Y-78843510D01*
X163321219Y-78849672D01*
X163318283Y-78861322D01*
X163262458Y-78917147D01*
X156737542Y-78917147D01*
X156681717Y-78861322D01*
X156678781Y-78849672D01*
X156665373Y-78844978D01*
X156000000Y-78179605D01*
X155336095Y-78843510D01*
X155321219Y-78849672D01*
X155318283Y-78861322D01*
X155262458Y-78917147D01*
X154737542Y-78917147D01*
X154681717Y-78861322D01*
X154678781Y-78849672D01*
X154665373Y-78844978D01*
X154000000Y-78179605D01*
X153336095Y-78843510D01*
X153321219Y-78849672D01*
X153318283Y-78861322D01*
X153262458Y-78917147D01*
X146737542Y-78917147D01*
X146681717Y-78861322D01*
X146678781Y-78849672D01*
X146665373Y-78844978D01*
X146000000Y-78179605D01*
X145336095Y-78843510D01*
X145321219Y-78849672D01*
X145318283Y-78861322D01*
X145262458Y-78917147D01*
X144737542Y-78917147D01*
X144681717Y-78861322D01*
X144678781Y-78849672D01*
X144665373Y-78844978D01*
X144000000Y-78179605D01*
X143336095Y-78843510D01*
X143321219Y-78849672D01*
X143318283Y-78861322D01*
X143262458Y-78917147D01*
X67805000Y-78917147D01*
X67805000Y-77072122D01*
X125342825Y-77072122D01*
X125557466Y-77590332D01*
X126019608Y-78085012D01*
X126635877Y-78365183D01*
X126905000Y-78247604D01*
X126905000Y-76803000D01*
X127159000Y-76803000D01*
X127159000Y-78247604D01*
X127428123Y-78365183D01*
X128044392Y-78085012D01*
X128506534Y-77590332D01*
X128721175Y-77072122D01*
X128603125Y-76803000D01*
X127159000Y-76803000D01*
X126905000Y-76803000D01*
X125460875Y-76803000D01*
X125342825Y-77072122D01*
X67805000Y-77072122D01*
X67805000Y-75433175D01*
X68510430Y-75433175D01*
X68633565Y-75720788D01*
X69315734Y-75980707D01*
X70045443Y-75959786D01*
X70622435Y-75720788D01*
X70745570Y-75433175D01*
X69628000Y-74315605D01*
X68510430Y-75433175D01*
X67805000Y-75433175D01*
X67805000Y-74824792D01*
X67883921Y-74745871D01*
X68043212Y-75130435D01*
X68330825Y-75253570D01*
X69448395Y-74136000D01*
X69807605Y-74136000D01*
X70925175Y-75253570D01*
X71212788Y-75130435D01*
X71472707Y-74448266D01*
X71451786Y-73718557D01*
X71212788Y-73141565D01*
X70925175Y-73018430D01*
X69807605Y-74136000D01*
X69448395Y-74136000D01*
X69434253Y-74121858D01*
X69613858Y-73942253D01*
X69628000Y-73956395D01*
X70745570Y-72838825D01*
X70622435Y-72551212D01*
X70228628Y-72401164D01*
X70960896Y-71668896D01*
X71369513Y-71057358D01*
X71513000Y-70336000D01*
X71513000Y-67433000D01*
X81451000Y-67433000D01*
X81451000Y-72972808D01*
X81284559Y-73079910D01*
X81139569Y-73292110D01*
X81088560Y-73544000D01*
X81088560Y-75744000D01*
X81132838Y-75979317D01*
X81271910Y-76195441D01*
X81484110Y-76340431D01*
X81736000Y-76391440D01*
X83936000Y-76391440D01*
X84171317Y-76347162D01*
X84387441Y-76208090D01*
X84532431Y-75995890D01*
X84583440Y-75744000D01*
X84583440Y-74644000D01*
X88687009Y-74644000D01*
X88819078Y-75307956D01*
X89195179Y-75870830D01*
X89758053Y-76246931D01*
X90422009Y-76379000D01*
X90489991Y-76379000D01*
X90988311Y-76279878D01*
X125342825Y-76279878D01*
X125460875Y-76549000D01*
X126905000Y-76549000D01*
X126905000Y-75104396D01*
X127159000Y-75104396D01*
X127159000Y-76549000D01*
X128603125Y-76549000D01*
X128721175Y-76279878D01*
X128506534Y-75761668D01*
X128044392Y-75266988D01*
X127428123Y-74986817D01*
X127159000Y-75104396D01*
X126905000Y-75104396D01*
X126635877Y-74986817D01*
X126019608Y-75266988D01*
X125557466Y-75761668D01*
X125342825Y-76279878D01*
X90988311Y-76279878D01*
X91153947Y-76246931D01*
X91480103Y-76029000D01*
X97060000Y-76029000D01*
X97590017Y-75923573D01*
X98039343Y-75623343D01*
X100599350Y-73063336D01*
X100695419Y-73044227D01*
X100790045Y-72981000D01*
X121204000Y-72981000D01*
X121734017Y-72875573D01*
X122183343Y-72575343D01*
X122931343Y-71827343D01*
X123231574Y-71378016D01*
X123337000Y-70848000D01*
X123337000Y-69933000D01*
X128347546Y-69933000D01*
X128321818Y-69950191D01*
X128308771Y-69955582D01*
X128298692Y-69965643D01*
X128084657Y-70108657D01*
X127942892Y-70320824D01*
X127932902Y-70330796D01*
X127927441Y-70343947D01*
X127784427Y-70557983D01*
X127734646Y-70808249D01*
X127729232Y-70821287D01*
X127729220Y-70835529D01*
X127679000Y-71088000D01*
X127728781Y-71338267D01*
X127728769Y-71352383D01*
X127734207Y-71365544D01*
X127784427Y-71618017D01*
X127926191Y-71830182D01*
X127931582Y-71843229D01*
X127941643Y-71853308D01*
X128084657Y-72067343D01*
X128296824Y-72209108D01*
X128306796Y-72219098D01*
X128319947Y-72224559D01*
X128533983Y-72367573D01*
X128784249Y-72417354D01*
X128797287Y-72422768D01*
X128811529Y-72422780D01*
X129064000Y-72473000D01*
X132112000Y-72473000D01*
X132642017Y-72367573D01*
X133091343Y-72067343D01*
X134651516Y-70507170D01*
X134759001Y-70462758D01*
X134759001Y-72010313D01*
X133672657Y-73096657D01*
X133372427Y-73545983D01*
X133267000Y-74076000D01*
X133267000Y-75004808D01*
X133100559Y-75111910D01*
X132955569Y-75324110D01*
X132904560Y-75576000D01*
X132904560Y-77776000D01*
X132948838Y-78011317D01*
X133087910Y-78227441D01*
X133300110Y-78372431D01*
X133552000Y-78423440D01*
X135752000Y-78423440D01*
X135987317Y-78379162D01*
X136203441Y-78240090D01*
X136348431Y-78027890D01*
X136399440Y-77776000D01*
X136399440Y-77385000D01*
X142827344Y-77385000D01*
X142677478Y-77813100D01*
X142706625Y-78333434D01*
X142849672Y-78678781D01*
X143082853Y-78737542D01*
X143820395Y-78000000D01*
X143806253Y-77985858D01*
X143985858Y-77806253D01*
X144000000Y-77820395D01*
X144014143Y-77806253D01*
X144193748Y-77985858D01*
X144179605Y-78000000D01*
X144843510Y-78663905D01*
X144849672Y-78678781D01*
X144861322Y-78681717D01*
X144917147Y-78737542D01*
X145000000Y-78716663D01*
X145082853Y-78737542D01*
X145138678Y-78681717D01*
X145150328Y-78678781D01*
X145155022Y-78665373D01*
X145820395Y-78000000D01*
X145806253Y-77985858D01*
X145985858Y-77806253D01*
X146000000Y-77820395D01*
X146014143Y-77806253D01*
X146193748Y-77985858D01*
X146179605Y-78000000D01*
X146917147Y-78737542D01*
X147150328Y-78678781D01*
X147322522Y-78186900D01*
X147293375Y-77666566D01*
X147176747Y-77385000D01*
X152827344Y-77385000D01*
X152677478Y-77813100D01*
X152706625Y-78333434D01*
X152849672Y-78678781D01*
X153082853Y-78737542D01*
X153820395Y-78000000D01*
X153806253Y-77985858D01*
X153985858Y-77806253D01*
X154000000Y-77820395D01*
X154014143Y-77806253D01*
X154193748Y-77985858D01*
X154179605Y-78000000D01*
X154843510Y-78663905D01*
X154849672Y-78678781D01*
X154861322Y-78681717D01*
X154917147Y-78737542D01*
X155000000Y-78716663D01*
X155082853Y-78737542D01*
X155138678Y-78681717D01*
X155150328Y-78678781D01*
X155155022Y-78665373D01*
X155820395Y-78000000D01*
X155806253Y-77985858D01*
X155985858Y-77806253D01*
X156000000Y-77820395D01*
X156014143Y-77806253D01*
X156193748Y-77985858D01*
X156179605Y-78000000D01*
X156917147Y-78737542D01*
X157150328Y-78678781D01*
X157322522Y-78186900D01*
X157293375Y-77666566D01*
X157176747Y-77385000D01*
X162827344Y-77385000D01*
X162677478Y-77813100D01*
X162706625Y-78333434D01*
X162849672Y-78678781D01*
X163082853Y-78737542D01*
X163820395Y-78000000D01*
X163806253Y-77985858D01*
X163985858Y-77806253D01*
X164000000Y-77820395D01*
X164014143Y-77806253D01*
X164193748Y-77985858D01*
X164179605Y-78000000D01*
X164843510Y-78663905D01*
X164849672Y-78678781D01*
X164861322Y-78681717D01*
X164917147Y-78737542D01*
X165000000Y-78716663D01*
X165082853Y-78737542D01*
X165138678Y-78681717D01*
X165150328Y-78678781D01*
X165155022Y-78665373D01*
X165820395Y-78000000D01*
X165806253Y-77985858D01*
X165985858Y-77806253D01*
X166000000Y-77820395D01*
X166014143Y-77806253D01*
X166193748Y-77985858D01*
X166179605Y-78000000D01*
X166917147Y-78737542D01*
X167150328Y-78678781D01*
X167322522Y-78186900D01*
X167293375Y-77666566D01*
X167176747Y-77385000D01*
X172827344Y-77385000D01*
X172677478Y-77813100D01*
X172706625Y-78333434D01*
X172849672Y-78678781D01*
X173082853Y-78737542D01*
X173820395Y-78000000D01*
X173806253Y-77985858D01*
X173985858Y-77806253D01*
X174000000Y-77820395D01*
X174014143Y-77806253D01*
X174193748Y-77985858D01*
X174179605Y-78000000D01*
X174843510Y-78663905D01*
X174849672Y-78678781D01*
X174861322Y-78681717D01*
X174917147Y-78737542D01*
X175000000Y-78716663D01*
X175082853Y-78737542D01*
X175138678Y-78681717D01*
X175150328Y-78678781D01*
X175155022Y-78665373D01*
X175820395Y-78000000D01*
X175806253Y-77985858D01*
X175985858Y-77806253D01*
X176000000Y-77820395D01*
X176014143Y-77806253D01*
X176193748Y-77985858D01*
X176179605Y-78000000D01*
X176917147Y-78737542D01*
X177150328Y-78678781D01*
X177322522Y-78186900D01*
X177293375Y-77666566D01*
X177176747Y-77385000D01*
X182827344Y-77385000D01*
X182677478Y-77813100D01*
X182706625Y-78333434D01*
X182849672Y-78678781D01*
X183082853Y-78737542D01*
X183820395Y-78000000D01*
X183806253Y-77985858D01*
X183985858Y-77806253D01*
X184000000Y-77820395D01*
X184014143Y-77806253D01*
X184193748Y-77985858D01*
X184179605Y-78000000D01*
X184843510Y-78663905D01*
X184849672Y-78678781D01*
X184861322Y-78681717D01*
X184917147Y-78737542D01*
X185000000Y-78716663D01*
X185082853Y-78737542D01*
X185138678Y-78681717D01*
X185150328Y-78678781D01*
X185155022Y-78665373D01*
X185820395Y-78000000D01*
X185806253Y-77985858D01*
X185985858Y-77806253D01*
X186000000Y-77820395D01*
X186014143Y-77806253D01*
X186193748Y-77985858D01*
X186179605Y-78000000D01*
X186917147Y-78737542D01*
X187150328Y-78678781D01*
X187322522Y-78186900D01*
X187293375Y-77666566D01*
X187176747Y-77385000D01*
X192827344Y-77385000D01*
X192677478Y-77813100D01*
X192706625Y-78333434D01*
X192849672Y-78678781D01*
X193082853Y-78737542D01*
X193820395Y-78000000D01*
X193806253Y-77985858D01*
X193985858Y-77806253D01*
X194000000Y-77820395D01*
X194014143Y-77806253D01*
X194193748Y-77985858D01*
X194179605Y-78000000D01*
X194843510Y-78663905D01*
X194849672Y-78678781D01*
X194861322Y-78681717D01*
X194917147Y-78737542D01*
X195000000Y-78716663D01*
X195082853Y-78737542D01*
X195138678Y-78681717D01*
X195150328Y-78678781D01*
X195155022Y-78665373D01*
X195820395Y-78000000D01*
X195806253Y-77985858D01*
X195985858Y-77806253D01*
X196000000Y-77820395D01*
X196014143Y-77806253D01*
X196193748Y-77985858D01*
X196179605Y-78000000D01*
X196917147Y-78737542D01*
X197150328Y-78678781D01*
X197322522Y-78186900D01*
X197293375Y-77666566D01*
X197176747Y-77385000D01*
X202827344Y-77385000D01*
X202677478Y-77813100D01*
X202706625Y-78333434D01*
X202849672Y-78678781D01*
X203082853Y-78737542D01*
X203820395Y-78000000D01*
X203806253Y-77985858D01*
X203985858Y-77806253D01*
X204000000Y-77820395D01*
X204014143Y-77806253D01*
X204193748Y-77985858D01*
X204179605Y-78000000D01*
X204843510Y-78663905D01*
X204849672Y-78678781D01*
X204861322Y-78681717D01*
X204917147Y-78737542D01*
X205000000Y-78716663D01*
X205082853Y-78737542D01*
X205138678Y-78681717D01*
X205150328Y-78678781D01*
X205155022Y-78665373D01*
X205820395Y-78000000D01*
X206179605Y-78000000D01*
X206917147Y-78737542D01*
X207150328Y-78678781D01*
X207322522Y-78186900D01*
X207293375Y-77666566D01*
X207150328Y-77321219D01*
X206917147Y-77262458D01*
X206179605Y-78000000D01*
X205820395Y-78000000D01*
X205806253Y-77985858D01*
X205985858Y-77806253D01*
X206000000Y-77820395D01*
X206562580Y-77257815D01*
X206979343Y-76979343D01*
X207279573Y-76530017D01*
X207385000Y-76000000D01*
X207279573Y-75469983D01*
X206979343Y-75020657D01*
X206948428Y-75000000D01*
X206979343Y-74979343D01*
X207279573Y-74530017D01*
X207385000Y-74000000D01*
X207385000Y-70000000D01*
X207279573Y-69469983D01*
X206979343Y-69020657D01*
X206530017Y-68720427D01*
X206000000Y-68615000D01*
X144000000Y-68615000D01*
X143685490Y-68677560D01*
X143325000Y-68677560D01*
X143089683Y-68721838D01*
X142873559Y-68860910D01*
X142728569Y-69073110D01*
X142677560Y-69325000D01*
X142677560Y-69685490D01*
X142615000Y-70000000D01*
X142615000Y-74000000D01*
X142720427Y-74530017D01*
X142777211Y-74615000D01*
X136071686Y-74615000D01*
X137123344Y-73563342D01*
X137185724Y-73469983D01*
X137423574Y-73114016D01*
X137529001Y-72583999D01*
X137529001Y-68095999D01*
X137423574Y-67565982D01*
X137123344Y-67116656D01*
X135691440Y-65684752D01*
X135691440Y-65616000D01*
X135647162Y-65380683D01*
X135623300Y-65343599D01*
X143264699Y-65343599D01*
X143528281Y-65981515D01*
X144015918Y-66470004D01*
X144653373Y-66734699D01*
X145343599Y-66735301D01*
X145981515Y-66471719D01*
X146470004Y-65984082D01*
X146734699Y-65346627D01*
X146734701Y-65343599D01*
X202264699Y-65343599D01*
X202528281Y-65981515D01*
X203015918Y-66470004D01*
X203653373Y-66734699D01*
X204343599Y-66735301D01*
X204981515Y-66471719D01*
X205470004Y-65984082D01*
X205734699Y-65346627D01*
X205735301Y-64656401D01*
X205471719Y-64018485D01*
X204984082Y-63529996D01*
X204346627Y-63265301D01*
X203656401Y-63264699D01*
X203018485Y-63528281D01*
X202529996Y-64015918D01*
X202265301Y-64653373D01*
X202264699Y-65343599D01*
X146734701Y-65343599D01*
X146735301Y-64656401D01*
X146471719Y-64018485D01*
X145984082Y-63529996D01*
X145346627Y-63265301D01*
X144656401Y-63264699D01*
X144018485Y-63528281D01*
X143529996Y-64015918D01*
X143265301Y-64653373D01*
X143264699Y-65343599D01*
X135623300Y-65343599D01*
X135508090Y-65164559D01*
X135295890Y-65019569D01*
X135044000Y-64968560D01*
X133244000Y-64968560D01*
X133008683Y-65012838D01*
X132792559Y-65151910D01*
X132647569Y-65364110D01*
X132596560Y-65616000D01*
X132596560Y-65684752D01*
X131118312Y-67163000D01*
X129729834Y-67163000D01*
X129742396Y-67157797D01*
X130130764Y-66810663D01*
X130356727Y-66341331D01*
X130234206Y-66135000D01*
X129191000Y-66135000D01*
X129191000Y-66155000D01*
X128937000Y-66155000D01*
X128937000Y-66135000D01*
X127893794Y-66135000D01*
X127771273Y-66341331D01*
X127997236Y-66810663D01*
X128385604Y-67157797D01*
X128398166Y-67163000D01*
X123020620Y-67163000D01*
X123003890Y-67151569D01*
X122765799Y-67103354D01*
X122780139Y-67055745D01*
X121952000Y-66227605D01*
X121123861Y-67055745D01*
X121138145Y-67103167D01*
X120916683Y-67144838D01*
X120700559Y-67283910D01*
X120555569Y-67496110D01*
X120504560Y-67748000D01*
X120504560Y-69348000D01*
X120548838Y-69583317D01*
X120567000Y-69611542D01*
X120567000Y-70211000D01*
X109195979Y-70211000D01*
X109283515Y-70174831D01*
X109673461Y-69785564D01*
X109884759Y-69276702D01*
X109885240Y-68725715D01*
X109674831Y-68216485D01*
X109285564Y-67826539D01*
X108776702Y-67615241D01*
X108225715Y-67614760D01*
X107716485Y-67825169D01*
X107326539Y-68214436D01*
X107115241Y-68723298D01*
X107114760Y-69274285D01*
X107325169Y-69783515D01*
X107714436Y-70173461D01*
X107804840Y-70211000D01*
X101075989Y-70211000D01*
X101345966Y-69963576D01*
X101599046Y-69420742D01*
X101478997Y-69183000D01*
X100235000Y-69183000D01*
X100235000Y-69203000D01*
X99981000Y-69203000D01*
X99981000Y-69183000D01*
X98737003Y-69183000D01*
X98616954Y-69420742D01*
X98870034Y-69963576D01*
X99260582Y-70321499D01*
X99022591Y-70480519D01*
X98689845Y-70978509D01*
X98670736Y-71074578D01*
X96486314Y-73259000D01*
X91480103Y-73259000D01*
X91153947Y-73041069D01*
X90489991Y-72909000D01*
X90422009Y-72909000D01*
X89758053Y-73041069D01*
X89195179Y-73417170D01*
X88819078Y-73980044D01*
X88687009Y-74644000D01*
X84583440Y-74644000D01*
X84583440Y-73544000D01*
X84539162Y-73308683D01*
X84400090Y-73092559D01*
X84221000Y-72970192D01*
X84221000Y-69555745D01*
X84547861Y-69555745D01*
X84621995Y-69801864D01*
X85159223Y-69994965D01*
X85729454Y-69967778D01*
X86130005Y-69801864D01*
X86204139Y-69555745D01*
X85376000Y-68727605D01*
X84547861Y-69555745D01*
X84221000Y-69555745D01*
X84221000Y-69331784D01*
X84368255Y-69376139D01*
X85196395Y-68548000D01*
X85555605Y-68548000D01*
X86383745Y-69376139D01*
X86629864Y-69302005D01*
X86822965Y-68764777D01*
X86795778Y-68194546D01*
X86629864Y-67793995D01*
X86383745Y-67719861D01*
X85555605Y-68548000D01*
X85196395Y-68548000D01*
X85182252Y-68533858D01*
X85361858Y-68354252D01*
X85376000Y-68368395D01*
X86204139Y-67540255D01*
X86189855Y-67492833D01*
X86411317Y-67451162D01*
X86439542Y-67433000D01*
X98563759Y-67433000D01*
X98604838Y-67651317D01*
X98743910Y-67867441D01*
X98956110Y-68012431D01*
X99007146Y-68022766D01*
X98870034Y-68148424D01*
X98616954Y-68691258D01*
X98737003Y-68929000D01*
X99981000Y-68929000D01*
X99981000Y-68909000D01*
X100235000Y-68909000D01*
X100235000Y-68929000D01*
X101478997Y-68929000D01*
X101599046Y-68691258D01*
X101345966Y-68148424D01*
X101211462Y-68025156D01*
X101243317Y-68019162D01*
X101459441Y-67880090D01*
X101604431Y-67667890D01*
X101655440Y-67416000D01*
X101655440Y-65831223D01*
X120505035Y-65831223D01*
X120532222Y-66401454D01*
X120698136Y-66802005D01*
X120944255Y-66876139D01*
X121772395Y-66048000D01*
X122131605Y-66048000D01*
X122959745Y-66876139D01*
X123205864Y-66802005D01*
X123398965Y-66264777D01*
X123371778Y-65694546D01*
X123363545Y-65674669D01*
X127771273Y-65674669D01*
X127893794Y-65881000D01*
X128937000Y-65881000D01*
X128937000Y-64838626D01*
X129191000Y-64838626D01*
X129191000Y-65881000D01*
X130234206Y-65881000D01*
X130356727Y-65674669D01*
X130130764Y-65205337D01*
X129742396Y-64858203D01*
X129397329Y-64715284D01*
X129191000Y-64838626D01*
X128937000Y-64838626D01*
X128730671Y-64715284D01*
X128385604Y-64858203D01*
X127997236Y-65205337D01*
X127771273Y-65674669D01*
X123363545Y-65674669D01*
X123205864Y-65293995D01*
X122959745Y-65219861D01*
X122131605Y-66048000D01*
X121772395Y-66048000D01*
X120944255Y-65219861D01*
X120698136Y-65293995D01*
X120505035Y-65831223D01*
X101655440Y-65831223D01*
X101655440Y-65616000D01*
X101611162Y-65380683D01*
X101472090Y-65164559D01*
X101290165Y-65040255D01*
X121123861Y-65040255D01*
X121952000Y-65868395D01*
X122780139Y-65040255D01*
X122706005Y-64794136D01*
X122168777Y-64601035D01*
X121598546Y-64628222D01*
X121197995Y-64794136D01*
X121123861Y-65040255D01*
X101290165Y-65040255D01*
X101259890Y-65019569D01*
X101008000Y-64968560D01*
X100469537Y-64968560D01*
X100170017Y-64768427D01*
X99640000Y-64663000D01*
X86444620Y-64663000D01*
X86427890Y-64651569D01*
X86176000Y-64600560D01*
X84576000Y-64600560D01*
X84340683Y-64644838D01*
X84312458Y-64663000D01*
X70216000Y-64663000D01*
X69700795Y-64765480D01*
X69628000Y-64751000D01*
X69439173Y-64788560D01*
X68428000Y-64788560D01*
X68192683Y-64832838D01*
X67976559Y-64971910D01*
X67831569Y-65184110D01*
X67780560Y-65436000D01*
X67780560Y-66447173D01*
X67743000Y-66636000D01*
X67743000Y-69555208D01*
X64587104Y-72711104D01*
X64178487Y-73322641D01*
X64130609Y-73563342D01*
X64035000Y-74044000D01*
X64035000Y-80735000D01*
X50000000Y-80735000D01*
X49308439Y-80872560D01*
X48900000Y-80872560D01*
X48664683Y-80916838D01*
X48448559Y-81055910D01*
X48303569Y-81268110D01*
X48252560Y-81520000D01*
X48252560Y-81928439D01*
X48115000Y-82620000D01*
X43611307Y-82620000D01*
X43369459Y-82510146D01*
X42179605Y-83700000D01*
X41820395Y-83700000D01*
X40630541Y-82510146D01*
X40332545Y-82645504D01*
X40055934Y-83363880D01*
X31127000Y-83363880D01*
X31127000Y-82330541D01*
X40810146Y-82330541D01*
X42000000Y-83520395D01*
X43189854Y-82330541D01*
X43054496Y-82032545D01*
X42336120Y-81755934D01*
X41566573Y-81775290D01*
X40945504Y-82032545D01*
X40810146Y-82330541D01*
X31127000Y-82330541D01*
X31127000Y-79383207D01*
X37064665Y-79383207D01*
X37358630Y-80094658D01*
X37902479Y-80639457D01*
X38613416Y-80934663D01*
X39383207Y-80935335D01*
X40094658Y-80641370D01*
X40639457Y-80097521D01*
X40934663Y-79386584D01*
X40934671Y-79377569D01*
X46677240Y-73635000D01*
X47715151Y-73635000D01*
X47667104Y-73667104D01*
X44281648Y-77052560D01*
X43700000Y-77052560D01*
X43464683Y-77096838D01*
X43248559Y-77235910D01*
X43103569Y-77448110D01*
X43052560Y-77700000D01*
X43052560Y-80300000D01*
X43096838Y-80535317D01*
X43235910Y-80751441D01*
X43448110Y-80896431D01*
X43700000Y-80947440D01*
X46300000Y-80947440D01*
X46535317Y-80903162D01*
X46751441Y-80764090D01*
X46896431Y-80551890D01*
X46947440Y-80300000D01*
X46947440Y-79718352D01*
X49780792Y-76885000D01*
X50000000Y-76885000D01*
X50721358Y-76741513D01*
X51332896Y-76332896D01*
X51741513Y-75721358D01*
X51885000Y-75000000D01*
X51741513Y-74278642D01*
X51332896Y-73667104D01*
X51284849Y-73635000D01*
X52322760Y-73635000D01*
X54252560Y-75564799D01*
X54252560Y-76100000D01*
X54296838Y-76335317D01*
X54435910Y-76551441D01*
X54648110Y-76696431D01*
X54900000Y-76747440D01*
X57100000Y-76747440D01*
X57335317Y-76703162D01*
X57551441Y-76564090D01*
X57696431Y-76351890D01*
X57747440Y-76100000D01*
X57747440Y-73900000D01*
X57703162Y-73664683D01*
X57564090Y-73448559D01*
X57351890Y-73303569D01*
X57100000Y-73252560D01*
X56564799Y-73252560D01*
X54156120Y-70843880D01*
X53625688Y-70489457D01*
X53000000Y-70364999D01*
X52999995Y-70365000D01*
X46000005Y-70365000D01*
X46000000Y-70364999D01*
X45374312Y-70489457D01*
X44843880Y-70843880D01*
X38623090Y-77064670D01*
X38616793Y-77064665D01*
X37905342Y-77358630D01*
X37360543Y-77902479D01*
X37065337Y-78613416D01*
X37064665Y-79383207D01*
X31127000Y-79383207D01*
X31127000Y-67845385D01*
X31226811Y-67343599D01*
X35264699Y-67343599D01*
X35528281Y-67981515D01*
X36015918Y-68470004D01*
X36653373Y-68734699D01*
X37343599Y-68735301D01*
X37981515Y-68471719D01*
X38470004Y-67984082D01*
X38734699Y-67346627D01*
X38735301Y-66656401D01*
X38471719Y-66018485D01*
X37984082Y-65529996D01*
X37346627Y-65265301D01*
X36656401Y-65264699D01*
X36018485Y-65528281D01*
X35529996Y-66015918D01*
X35265301Y-66653373D01*
X35264699Y-67343599D01*
X31226811Y-67343599D01*
X31323850Y-66855756D01*
X36075232Y-62104374D01*
X38029980Y-61127000D01*
X201947394Y-61127000D01*
X202910197Y-62089803D01*
M02*
