G04 #@! TF.FileFunction,Soldermask,Top*
%FSLAX46Y46*%
G04 Gerber Fmt 4.6, Leading zero omitted, Abs format (unit mm)*
G04 Created by KiCad (PCBNEW 4.0.7-e2-6376~61~ubuntu18.04.1) date Mon Jul 23 21:43:28 2018*
%MOMM*%
%LPD*%
G01*
G04 APERTURE LIST*
%ADD10C,0.100000*%
%ADD11C,1.500000*%
%ADD12C,2.200000*%
%ADD13R,2.400000X2.400000*%
%ADD14C,2.400000*%
%ADD15R,1.600000X1.600000*%
%ADD16C,1.600000*%
%ADD17R,2.200000X2.200000*%
%ADD18O,2.200000X2.200000*%
%ADD19R,2.600000X2.600000*%
%ADD20C,2.600000*%
%ADD21R,1.350000X1.350000*%
%ADD22C,1.350000*%
%ADD23R,1.800000X1.800000*%
%ADD24C,1.800000*%
%ADD25C,1.400000*%
%ADD26O,1.400000X1.400000*%
%ADD27O,1.800000X1.800000*%
G04 APERTURE END LIST*
D10*
D11*
X108500000Y-90000000D03*
D12*
X145000000Y-95000000D03*
X145000000Y-95000000D03*
X204000000Y-94000000D03*
X204000000Y-65000000D03*
X145000000Y-65000000D03*
X37000000Y-67000000D03*
X37000000Y-93000000D03*
D13*
X69628000Y-66636000D03*
D14*
X69628000Y-74136000D03*
D13*
X69628000Y-93828000D03*
D14*
X69628000Y-86328000D03*
D15*
X85376000Y-66048000D03*
D16*
X85376000Y-68548000D03*
D15*
X87000000Y-87000000D03*
D16*
X87000000Y-84500000D03*
D15*
X121952000Y-68548000D03*
D16*
X121952000Y-66048000D03*
D15*
X121444000Y-89924000D03*
D16*
X121444000Y-92424000D03*
D17*
X50000000Y-82620000D03*
D18*
X50000000Y-75000000D03*
D17*
X56000000Y-75000000D03*
D18*
X56000000Y-82620000D03*
D17*
X82836000Y-74644000D03*
D18*
X90456000Y-74644000D03*
D17*
X91000000Y-94000000D03*
D18*
X83380000Y-94000000D03*
D17*
X134652000Y-76676000D03*
D18*
X127032000Y-76676000D03*
D17*
X127540000Y-83788000D03*
D18*
X135160000Y-83788000D03*
D19*
X45000000Y-79000000D03*
D20*
X39000000Y-79000000D03*
X42000000Y-83700000D03*
D21*
X144000000Y-70000000D03*
D22*
X146000000Y-70000000D03*
X144000000Y-72000000D03*
X146000000Y-72000000D03*
X144000000Y-74000000D03*
X146000000Y-74000000D03*
X144000000Y-76000000D03*
X146000000Y-76000000D03*
X144000000Y-78000000D03*
X146000000Y-78000000D03*
X144000000Y-80000000D03*
X146000000Y-80000000D03*
X144000000Y-82000000D03*
X146000000Y-82000000D03*
X144000000Y-84000000D03*
X146000000Y-84000000D03*
D21*
X154000000Y-70000000D03*
D22*
X156000000Y-70000000D03*
X154000000Y-72000000D03*
X156000000Y-72000000D03*
X154000000Y-74000000D03*
X156000000Y-74000000D03*
X154000000Y-76000000D03*
X156000000Y-76000000D03*
X154000000Y-78000000D03*
X156000000Y-78000000D03*
X154000000Y-80000000D03*
X156000000Y-80000000D03*
X154000000Y-82000000D03*
X156000000Y-82000000D03*
X154000000Y-84000000D03*
X156000000Y-84000000D03*
D21*
X164000000Y-70000000D03*
D22*
X166000000Y-70000000D03*
X164000000Y-72000000D03*
X166000000Y-72000000D03*
X164000000Y-74000000D03*
X166000000Y-74000000D03*
X164000000Y-76000000D03*
X166000000Y-76000000D03*
X164000000Y-78000000D03*
X166000000Y-78000000D03*
X164000000Y-80000000D03*
X166000000Y-80000000D03*
X164000000Y-82000000D03*
X166000000Y-82000000D03*
X164000000Y-84000000D03*
X166000000Y-84000000D03*
D21*
X174000000Y-70000000D03*
D22*
X176000000Y-70000000D03*
X174000000Y-72000000D03*
X176000000Y-72000000D03*
X174000000Y-74000000D03*
X176000000Y-74000000D03*
X174000000Y-76000000D03*
X176000000Y-76000000D03*
X174000000Y-78000000D03*
X176000000Y-78000000D03*
X174000000Y-80000000D03*
X176000000Y-80000000D03*
X174000000Y-82000000D03*
X176000000Y-82000000D03*
X174000000Y-84000000D03*
X176000000Y-84000000D03*
D21*
X184000000Y-70000000D03*
D22*
X186000000Y-70000000D03*
X184000000Y-72000000D03*
X186000000Y-72000000D03*
X184000000Y-74000000D03*
X186000000Y-74000000D03*
X184000000Y-76000000D03*
X186000000Y-76000000D03*
X184000000Y-78000000D03*
X186000000Y-78000000D03*
X184000000Y-80000000D03*
X186000000Y-80000000D03*
X184000000Y-82000000D03*
X186000000Y-82000000D03*
X184000000Y-84000000D03*
X186000000Y-84000000D03*
D21*
X194000000Y-70000000D03*
D22*
X196000000Y-70000000D03*
X194000000Y-72000000D03*
X196000000Y-72000000D03*
X194000000Y-74000000D03*
X196000000Y-74000000D03*
X194000000Y-76000000D03*
X196000000Y-76000000D03*
X194000000Y-78000000D03*
X196000000Y-78000000D03*
X194000000Y-80000000D03*
X196000000Y-80000000D03*
X194000000Y-82000000D03*
X196000000Y-82000000D03*
X194000000Y-84000000D03*
X196000000Y-84000000D03*
D21*
X204000000Y-70000000D03*
D22*
X206000000Y-70000000D03*
X204000000Y-72000000D03*
X206000000Y-72000000D03*
X204000000Y-74000000D03*
X206000000Y-74000000D03*
X204000000Y-76000000D03*
X206000000Y-76000000D03*
X204000000Y-78000000D03*
X206000000Y-78000000D03*
X204000000Y-80000000D03*
X206000000Y-80000000D03*
X204000000Y-82000000D03*
X206000000Y-82000000D03*
X204000000Y-84000000D03*
X206000000Y-84000000D03*
D23*
X133128000Y-93440000D03*
D24*
X133128000Y-90900000D03*
D23*
X134144000Y-66516000D03*
D24*
X134144000Y-69056000D03*
D25*
X129064000Y-71088000D03*
D26*
X129064000Y-66008000D03*
D25*
X128048000Y-89376000D03*
D26*
X128048000Y-94456000D03*
D23*
X100108000Y-66516000D03*
D27*
X100108000Y-69056000D03*
X100108000Y-71596000D03*
D23*
X100108000Y-87852000D03*
D27*
X100108000Y-90392000D03*
X100108000Y-92932000D03*
D11*
X108500000Y-69000000D03*
M02*
