M48
;DRILL file {KiCad 4.0.7-e2-6376~61~ubuntu18.04.1} date Mon Jul 23 21:43:47 2018
;FORMAT={-:-/ absolute / inch / decimal}
FMAT,2
INCH,TZ
T1C0.028
T2C0.031
T3C0.035
T4C0.039
T5C0.043
T6C0.044
T7C0.047
T8C0.063
T9C0.087
%
G90
G05
M72
T1
X5.0413Y-3.5187
X5.0413Y-3.7187
X5.0813Y-2.5987
X5.0813Y-2.7987
T2
X3.3613Y-2.6003
X3.3613Y-2.6987
X3.4252Y-3.3268
X3.4252Y-3.4252
X4.7813Y-3.5403
X4.7813Y-3.6387
X4.8013Y-2.6003
X4.8013Y-2.6987
X5.6693Y-2.7559
X5.6693Y-2.8346
X5.6693Y-2.9134
X5.6693Y-2.9921
X5.6693Y-3.0709
X5.6693Y-3.1496
X5.6693Y-3.2283
X5.6693Y-3.3071
X5.748Y-2.7559
X5.748Y-2.8346
X5.748Y-2.9134
X5.748Y-2.9921
X5.748Y-3.0709
X5.748Y-3.1496
X5.748Y-3.2283
X5.748Y-3.3071
X6.063Y-2.7559
X6.063Y-2.8346
X6.063Y-2.9134
X6.063Y-2.9921
X6.063Y-3.0709
X6.063Y-3.1496
X6.063Y-3.2283
X6.063Y-3.3071
X6.1417Y-2.7559
X6.1417Y-2.8346
X6.1417Y-2.9134
X6.1417Y-2.9921
X6.1417Y-3.0709
X6.1417Y-3.1496
X6.1417Y-3.2283
X6.1417Y-3.3071
X6.4567Y-2.7559
X6.4567Y-2.8346
X6.4567Y-2.9134
X6.4567Y-2.9921
X6.4567Y-3.0709
X6.4567Y-3.1496
X6.4567Y-3.2283
X6.4567Y-3.3071
X6.5354Y-2.7559
X6.5354Y-2.8346
X6.5354Y-2.9134
X6.5354Y-2.9921
X6.5354Y-3.0709
X6.5354Y-3.1496
X6.5354Y-3.2283
X6.5354Y-3.3071
X6.8504Y-2.7559
X6.8504Y-2.8346
X6.8504Y-2.9134
X6.8504Y-2.9921
X6.8504Y-3.0709
X6.8504Y-3.1496
X6.8504Y-3.2283
X6.8504Y-3.3071
X6.9291Y-2.7559
X6.9291Y-2.8346
X6.9291Y-2.9134
X6.9291Y-2.9921
X6.9291Y-3.0709
X6.9291Y-3.1496
X6.9291Y-3.2283
X6.9291Y-3.3071
X7.2441Y-2.7559
X7.2441Y-2.8346
X7.2441Y-2.9134
X7.2441Y-2.9921
X7.2441Y-3.0709
X7.2441Y-3.1496
X7.2441Y-3.2283
X7.2441Y-3.3071
X7.3228Y-2.7559
X7.3228Y-2.8346
X7.3228Y-2.9134
X7.3228Y-2.9921
X7.3228Y-3.0709
X7.3228Y-3.1496
X7.3228Y-3.2283
X7.3228Y-3.3071
X7.6378Y-2.7559
X7.6378Y-2.8346
X7.6378Y-2.9134
X7.6378Y-2.9921
X7.6378Y-3.0709
X7.6378Y-3.1496
X7.6378Y-3.2283
X7.6378Y-3.3071
X7.7165Y-2.7559
X7.7165Y-2.8346
X7.7165Y-2.9134
X7.7165Y-2.9921
X7.7165Y-3.0709
X7.7165Y-3.1496
X7.7165Y-3.2283
X7.7165Y-3.3071
X8.0315Y-2.7559
X8.0315Y-2.8346
X8.0315Y-2.9134
X8.0315Y-2.9921
X8.0315Y-3.0709
X8.0315Y-3.1496
X8.0315Y-3.2283
X8.0315Y-3.3071
X8.1102Y-2.7559
X8.1102Y-2.8346
X8.1102Y-2.9134
X8.1102Y-2.9921
X8.1102Y-3.0709
X8.1102Y-3.1496
X8.1102Y-3.2283
X8.1102Y-3.3071
T3
X5.2413Y-3.5787
X5.2413Y-3.6787
X5.2813Y-2.6187
X5.2813Y-2.7187
T4
X3.9413Y-2.6187
X3.9413Y-2.7187
X3.9413Y-2.8187
X3.9413Y-3.4587
X3.9413Y-3.5587
X3.9413Y-3.6587
T5
X1.9685Y-2.9528
X1.9685Y-3.2528
X2.2047Y-2.9528
X2.2047Y-3.2528
X3.2613Y-2.9387
X3.2827Y-3.7008
X3.5613Y-2.9387
X3.5827Y-3.7008
X5.0013Y-3.0187
X5.0213Y-3.2987
X5.3013Y-3.0187
X5.3213Y-3.2987
T6
X4.2717Y-2.7165
X4.2717Y-3.5433
T7
X2.7413Y-2.6235
X2.7413Y-2.9187
X2.7413Y-3.3987
X2.7413Y-3.694
T8
X1.5354Y-3.1102
X1.6535Y-3.2953
X1.7717Y-3.1102
T9
X1.4567Y-2.6378
X1.4567Y-3.6614
X5.7087Y-2.5591
X5.7087Y-3.7402
X5.7087Y-3.7402
X8.0315Y-2.5591
X8.0315Y-3.7008
T0
M30
